<?xml version="1.0" encoding="UTF-8"?>
<svg version="1.1" xmlns="http://www.w3.org/2000/svg" width="740" height="740">
<path d="M0 0 C244.2 0 488.4 0 740 0 C740 244.2 740 488.4 740 740 C495.8 740 251.6 740 0 740 C0 495.8 0 251.6 0 0 Z " fill="#FEFEFE" transform="translate(0,0)"/>
<path d="M0 0 C2.09755436 -0.00543038 4.1951049 -0.01255814 6.29264832 -0.02124023 C11.95176612 -0.03936751 17.61058996 -0.03244999 23.26971245 -0.01972389 C29.21419903 -0.00954107 35.15866176 -0.01900416 41.10314941 -0.02526855 C51.0826465 -0.03252963 61.06202487 -0.02299771 71.04150391 -0.00390625 C82.55118465 0.01785942 94.06058188 0.01080696 105.57025576 -0.01121187 C115.48237664 -0.02940979 125.39441257 -0.03190275 135.30654478 -0.0214572 C141.21342835 -0.01524639 147.120179 -0.01431991 153.02705383 -0.02760315 C158.58242769 -0.03922508 164.13743882 -0.03102061 169.69277382 -0.00802612 C171.72194634 -0.00277278 173.7511498 -0.00419434 175.78030968 -0.01307678 C192.25213956 -0.07848936 210.35882421 1.3281863 222.89648438 13.51757812 C234.5406687 26.94595198 237.38960448 42.27707367 237.23706055 59.68310547 C237.23621142 61.03490683 237.23669496 62.38670957 237.23838806 63.73851013 C237.23923834 67.35959205 237.22177234 70.98036739 237.20066619 74.60137892 C237.18173528 78.40363929 237.18013617 82.205909 237.17658997 86.00820923 C237.16731718 93.18662633 237.14276899 100.36490409 237.1125415 107.54326022 C237.07884778 115.72478794 237.06247409 123.9063228 237.04745519 132.08790278 C237.01621435 148.89787574 236.96354813 165.70770907 236.89648438 182.51757812 C237.55648438 182.51757812 238.21648437 182.51757812 238.89648438 182.51757812 C238.89648438 183.17757812 238.89648438 183.83757812 238.89648438 184.51757812 C238.23648437 184.51757812 237.57648438 184.51757812 236.89648438 184.51757812 C236.89648438 203.98757813 236.89648438 223.45757812 236.89648438 243.51757812 C237.55648438 243.51757812 238.21648437 243.51757812 238.89648438 243.51757812 C238.89648438 244.83757812 238.89648438 246.15757812 238.89648438 247.51757812 C238.23648437 247.51757812 237.57648438 247.51757812 236.89648438 247.51757812 C236.89800326 248.23055256 236.89952214 248.943527 236.90108705 249.67810673 C236.99069835 291.98252934 237.05928056 334.2869409 237.10074569 376.59143942 C237.10574821 381.67676381 237.11092553 386.76208801 237.11621094 391.84741211 C237.11726018 392.85976185 237.11830942 393.8721116 237.11939046 394.91513861 C237.13677155 411.28339549 237.16829654 427.65159588 237.20509556 444.01981931 C237.24256895 460.82883234 237.26473373 477.63781588 237.27283835 494.44686896 C237.27831288 504.80979829 237.29557172 515.17256793 237.32815024 525.53544808 C237.34937721 532.65224417 237.355666 539.76895832 237.35048988 546.88578372 C237.34794077 550.98511352 237.35170677 555.08416527 237.37330627 559.18344498 C237.5819787 600.9231416 237.5819787 600.9231416 225.89648438 615.51757812 C225.373125 616.18144531 224.84976562 616.8453125 224.31054688 617.52929688 C215.51892475 627.41451102 201.55875912 630.9645411 188.89648438 632.51757812 C186.04329964 632.65276161 183.19541703 632.6570316 180.33940125 632.65129089 C179.08532092 632.65468923 179.08532092 632.65468923 177.80590564 632.65815622 C175.01796908 632.66446182 172.23008156 632.66366907 169.44213867 632.6628418 C167.43765195 632.66583543 165.43316581 632.66923843 163.42868042 632.67301941 C157.99264336 632.68184272 152.55662205 632.68419682 147.12057853 632.6848352 C143.72185652 632.68554663 140.32313851 632.68768273 136.9244175 632.69033241 C125.06036755 632.69958024 113.19632882 632.70366799 101.33227539 632.70288086 C90.28455178 632.70228018 79.23687702 632.7128315 68.18916577 632.72862452 C58.69425245 632.74171265 49.19935506 632.74706422 39.70443279 632.74642545 C34.03793514 632.74617084 28.37148093 632.74900156 22.70499229 632.7596035 C17.3739021 632.76930589 12.04289667 632.76934896 6.71180344 632.76208687 C4.75996463 632.7610437 2.80812049 632.76338796 0.85629082 632.76944733 C-17.82461748 632.82366571 -17.82461748 632.82366571 -26.10351562 630.51757812 C-27.03164063 630.30617188 -27.95976562 630.09476563 -28.91601562 629.87695312 C-39.4178302 626.95144764 -48.90942821 621.29886163 -54.72460938 611.89648438 C-61.1314065 599.86576559 -63.7127046 587.96761534 -63.58453369 574.41983032 C-63.58628317 573.05893457 -63.58979496 571.69804017 -63.59489036 570.33715284 C-63.60374046 566.64029157 -63.58796632 562.94390295 -63.56777811 559.24710178 C-63.55037173 555.24458522 -63.55635905 551.24209154 -63.55938721 547.23954773 C-63.5614763 540.31906535 -63.54901372 533.39873477 -63.52643585 526.47829056 C-63.49381424 516.47273368 -63.48349848 506.46724958 -63.47848389 496.46164529 C-63.46974711 480.22503972 -63.44317559 463.9885149 -63.40527344 447.75195312 C-63.36851137 431.98730877 -63.34022018 416.22268642 -63.32324219 400.45800781 C-63.32219129 399.48493839 -63.3211404 398.51186896 -63.32005766 397.50931258 C-63.3148372 392.6273103 -63.30978244 387.74530787 -63.30481005 382.86330533 C-63.26339841 342.41467345 -63.19299424 301.96613042 -63.10351562 261.51757812 C-63.76351562 261.51757812 -64.42351562 261.51757812 -65.10351562 261.51757812 C-64.9450415 261.01452148 -64.78656738 260.51146484 -64.62329102 259.99316406 C-63.91984941 256.64281276 -63.86837723 253.31787809 -63.78710938 249.90820312 C-63.76632828 249.18139343 -63.74554718 248.45458374 -63.72413635 247.70574951 C-63.6589605 245.39311821 -63.59990523 243.08037719 -63.54101562 240.76757812 C-63.49779996 239.19595238 -63.45418471 237.62433756 -63.41015625 236.05273438 C-63.30331207 232.2077936 -63.20195539 228.36274288 -63.10351562 224.51757812 C-63.76351562 224.51757812 -64.42351562 224.51757812 -65.10351562 224.51757812 C-65.10351562 223.52757812 -65.10351562 222.53757812 -65.10351562 221.51757812 C-64.44351563 221.51757812 -63.78351563 221.51757812 -63.10351562 221.51757812 C-63.10351562 217.22757813 -63.10351562 212.93757812 -63.10351562 208.51757812 C-63.76351562 208.51757812 -64.42351562 208.51757812 -65.10351562 208.51757812 C-65.10351562 204.22757813 -65.10351562 199.93757812 -65.10351562 195.51757812 C-64.44351563 195.51757812 -63.78351563 195.51757812 -63.10351562 195.51757812 C-63.10351562 186.93757812 -63.10351562 178.35757813 -63.10351562 169.51757812 C-63.76351562 169.51757812 -64.42351562 169.51757812 -65.10351562 169.51757812 C-65.10351562 168.52757812 -65.10351562 167.53757813 -65.10351562 166.51757812 C-64.44351563 166.51757812 -63.78351563 166.51757812 -63.10351562 166.51757812 C-63.10351562 159.58757812 -63.10351562 152.65757812 -63.10351562 145.51757812 C-63.76351562 145.51757812 -64.42351562 145.51757812 -65.10351562 145.51757812 C-65.10351562 142.54757813 -65.10351562 139.57757813 -65.10351562 136.51757812 C-64.44351563 136.51757812 -63.78351563 136.51757812 -63.10351562 136.51757812 C-63.10351562 131.89757812 -63.10351562 127.27757812 -63.10351562 122.51757812 C-63.76351562 122.51757812 -64.42351562 122.51757812 -65.10351562 122.51757812 C-65.10351562 121.52757812 -65.10351562 120.53757812 -65.10351562 119.51757812 C-64.44351563 119.51757812 -63.78351563 119.51757812 -63.10351562 119.51757812 C-63.11239807 118.6135022 -63.12128052 117.70942627 -63.13043213 116.7779541 C-63.21113178 108.18876267 -63.27175825 99.59970158 -63.31076431 91.01021576 C-63.33149301 86.59599924 -63.35953536 82.18210026 -63.40527344 77.76806641 C-63.44926432 73.49510147 -63.47276283 69.22243873 -63.4830246 64.94926453 C-63.49032182 63.33244581 -63.50456611 61.71564051 -63.52643585 60.09895325 C-63.75314859 42.61789834 -61.20920279 26.9021063 -48.79101562 13.70507812 C-34.94100913 0.63729791 -18.02893742 -0.07891985 0 0 Z " fill="#181618" transform="translate(283.103515625,52.482421875)"/>
<path d="M0 0 C2.09755436 -0.00543038 4.1951049 -0.01255814 6.29264832 -0.02124023 C11.95176612 -0.03936751 17.61058996 -0.03244999 23.26971245 -0.01972389 C29.21419903 -0.00954107 35.15866176 -0.01900416 41.10314941 -0.02526855 C51.0826465 -0.03252963 61.06202487 -0.02299771 71.04150391 -0.00390625 C82.55118465 0.01785942 94.06058188 0.01080696 105.57025576 -0.01121187 C115.48237664 -0.02940979 125.39441257 -0.03190275 135.30654478 -0.0214572 C141.21342835 -0.01524639 147.120179 -0.01431991 153.02705383 -0.02760315 C158.58242769 -0.03922508 164.13743882 -0.03102061 169.69277382 -0.00802612 C171.72194634 -0.00277278 173.7511498 -0.00419434 175.78030968 -0.01307678 C192.25213956 -0.07848936 210.35882421 1.3281863 222.89648438 13.51757812 C234.5406687 26.94595198 237.38960448 42.27707367 237.23706055 59.68310547 C237.23621142 61.03490683 237.23669496 62.38670957 237.23838806 63.73851013 C237.23923834 67.35959205 237.22177234 70.98036739 237.20066619 74.60137892 C237.18173528 78.40363929 237.18013617 82.205909 237.17658997 86.00820923 C237.16731718 93.18662633 237.14276899 100.36490409 237.1125415 107.54326022 C237.07884778 115.72478794 237.06247409 123.9063228 237.04745519 132.08790278 C237.01621435 148.89787574 236.96354813 165.70770907 236.89648438 182.51757812 C237.55648438 182.51757812 238.21648437 182.51757812 238.89648438 182.51757812 C238.89648438 183.17757812 238.89648438 183.83757812 238.89648438 184.51757812 C238.23648437 184.51757812 237.57648438 184.51757812 236.89648438 184.51757812 C236.89648438 203.98757813 236.89648438 223.45757812 236.89648438 243.51757812 C237.55648438 243.51757812 238.21648437 243.51757812 238.89648438 243.51757812 C238.89648438 244.83757812 238.89648438 246.15757812 238.89648438 247.51757812 C238.23648437 247.51757812 237.57648438 247.51757812 236.89648438 247.51757812 C236.89800326 248.23055256 236.89952214 248.943527 236.90108705 249.67810673 C236.99069835 291.98252934 237.05928056 334.2869409 237.10074569 376.59143942 C237.10574821 381.67676381 237.11092553 386.76208801 237.11621094 391.84741211 C237.11726018 392.85976185 237.11830942 393.8721116 237.11939046 394.91513861 C237.13677155 411.28339549 237.16829654 427.65159588 237.20509556 444.01981931 C237.24256895 460.82883234 237.26473373 477.63781588 237.27283835 494.44686896 C237.27831288 504.80979829 237.29557172 515.17256793 237.32815024 525.53544808 C237.34937721 532.65224417 237.355666 539.76895832 237.35048988 546.88578372 C237.34794077 550.98511352 237.35170677 555.08416527 237.37330627 559.18344498 C237.5819787 600.9231416 237.5819787 600.9231416 225.89648438 615.51757812 C225.373125 616.18144531 224.84976562 616.8453125 224.31054688 617.52929688 C215.51892475 627.41451102 201.55875912 630.9645411 188.89648438 632.51757812 C186.04329964 632.65276161 183.19541703 632.6570316 180.33940125 632.65129089 C179.08532092 632.65468923 179.08532092 632.65468923 177.80590564 632.65815622 C175.01796908 632.66446182 172.23008156 632.66366907 169.44213867 632.6628418 C167.43765195 632.66583543 165.43316581 632.66923843 163.42868042 632.67301941 C157.99264336 632.68184272 152.55662205 632.68419682 147.12057853 632.6848352 C143.72185652 632.68554663 140.32313851 632.68768273 136.9244175 632.69033241 C125.06036755 632.69958024 113.19632882 632.70366799 101.33227539 632.70288086 C90.28455178 632.70228018 79.23687702 632.7128315 68.18916577 632.72862452 C58.69425245 632.74171265 49.19935506 632.74706422 39.70443279 632.74642545 C34.03793514 632.74617084 28.37148093 632.74900156 22.70499229 632.7596035 C17.3739021 632.76930589 12.04289667 632.76934896 6.71180344 632.76208687 C4.75996463 632.7610437 2.80812049 632.76338796 0.85629082 632.76944733 C-17.82461748 632.82366571 -17.82461748 632.82366571 -26.10351562 630.51757812 C-27.03164063 630.30617188 -27.95976562 630.09476563 -28.91601562 629.87695312 C-39.4178302 626.95144764 -48.90942821 621.29886163 -54.72460938 611.89648438 C-61.1314065 599.86576559 -63.7127046 587.96761534 -63.58453369 574.41983032 C-63.58628317 573.05893457 -63.58979496 571.69804017 -63.59489036 570.33715284 C-63.60374046 566.64029157 -63.58796632 562.94390295 -63.56777811 559.24710178 C-63.55037173 555.24458522 -63.55635905 551.24209154 -63.55938721 547.23954773 C-63.5614763 540.31906535 -63.54901372 533.39873477 -63.52643585 526.47829056 C-63.49381424 516.47273368 -63.48349848 506.46724958 -63.47848389 496.46164529 C-63.46974711 480.22503972 -63.44317559 463.9885149 -63.40527344 447.75195312 C-63.36851137 431.98730877 -63.34022018 416.22268642 -63.32324219 400.45800781 C-63.32219129 399.48493839 -63.3211404 398.51186896 -63.32005766 397.50931258 C-63.3148372 392.6273103 -63.30978244 387.74530787 -63.30481005 382.86330533 C-63.26339841 342.41467345 -63.19299424 301.96613042 -63.10351562 261.51757812 C-63.76351562 261.51757812 -64.42351562 261.51757812 -65.10351562 261.51757812 C-64.9450415 261.01452148 -64.78656738 260.51146484 -64.62329102 259.99316406 C-63.91984941 256.64281276 -63.86837723 253.31787809 -63.78710938 249.90820312 C-63.76632828 249.18139343 -63.74554718 248.45458374 -63.72413635 247.70574951 C-63.6589605 245.39311821 -63.59990523 243.08037719 -63.54101562 240.76757812 C-63.49779996 239.19595238 -63.45418471 237.62433756 -63.41015625 236.05273438 C-63.30331207 232.2077936 -63.20195539 228.36274288 -63.10351562 224.51757812 C-63.76351562 224.51757812 -64.42351562 224.51757812 -65.10351562 224.51757812 C-65.10351562 223.52757812 -65.10351562 222.53757812 -65.10351562 221.51757812 C-64.44351563 221.51757812 -63.78351563 221.51757812 -63.10351562 221.51757812 C-63.10351562 217.22757813 -63.10351562 212.93757812 -63.10351562 208.51757812 C-63.76351562 208.51757812 -64.42351562 208.51757812 -65.10351562 208.51757812 C-65.10351562 204.22757813 -65.10351562 199.93757812 -65.10351562 195.51757812 C-64.44351563 195.51757812 -63.78351563 195.51757812 -63.10351562 195.51757812 C-63.10351562 186.93757812 -63.10351562 178.35757813 -63.10351562 169.51757812 C-63.76351562 169.51757812 -64.42351562 169.51757812 -65.10351562 169.51757812 C-65.10351562 168.52757812 -65.10351562 167.53757813 -65.10351562 166.51757812 C-64.44351563 166.51757812 -63.78351563 166.51757812 -63.10351562 166.51757812 C-63.10351562 159.58757812 -63.10351562 152.65757812 -63.10351562 145.51757812 C-63.76351562 145.51757812 -64.42351562 145.51757812 -65.10351562 145.51757812 C-65.10351562 142.54757813 -65.10351562 139.57757813 -65.10351562 136.51757812 C-64.44351563 136.51757812 -63.78351563 136.51757812 -63.10351562 136.51757812 C-63.10351562 131.89757812 -63.10351562 127.27757812 -63.10351562 122.51757812 C-63.76351562 122.51757812 -64.42351562 122.51757812 -65.10351562 122.51757812 C-65.10351562 121.52757812 -65.10351562 120.53757812 -65.10351562 119.51757812 C-64.44351563 119.51757812 -63.78351563 119.51757812 -63.10351562 119.51757812 C-63.11239807 118.6135022 -63.12128052 117.70942627 -63.13043213 116.7779541 C-63.21113178 108.18876267 -63.27175825 99.59970158 -63.31076431 91.01021576 C-63.33149301 86.59599924 -63.35953536 82.18210026 -63.40527344 77.76806641 C-63.44926432 73.49510147 -63.47276283 69.22243873 -63.4830246 64.94926453 C-63.49032182 63.33244581 -63.50456611 61.71564051 -63.52643585 60.09895325 C-63.75314859 42.61789834 -61.20920279 26.9021063 -48.79101562 13.70507812 C-34.94100913 0.63729791 -18.02893742 -0.07891985 0 0 Z M-36.10351562 15.51757812 C-37.61945313 16.32195312 -37.61945313 16.32195312 -39.16601562 17.14257812 C-42.54324879 19.87310706 -44.00921237 22.40991529 -45.94726562 26.23632812 C-47.10351562 28.51757812 -47.10351562 28.51757812 -49.22851562 31.83007812 C-55.57363394 43.24326885 -54.52746078 56.59165822 -54.48446655 69.20159912 C-54.48792616 71.41144805 -54.49269276 73.62129524 -54.49864829 75.83113885 C-54.51114651 81.88442762 -54.50499311 87.93757411 -54.49568963 93.99086332 C-54.48959309 99.85491807 -54.49759931 105.71894285 -54.50513173 111.58299344 C-54.52090577 124.31316573 -54.5195688 137.04329277 -54.51089499 149.77346933 C-54.50334017 160.91653251 -54.501382 172.05957913 -54.50496292 183.20264435 C-54.50519208 183.94257935 -54.50542123 184.68251435 -54.50565733 185.44487163 C-54.5065914 188.44875978 -54.5075466 191.45264792 -54.50853662 194.45653605 C-54.51770934 222.62410573 -54.50940073 250.79164664 -54.49324593 278.95921187 C-54.47901551 303.96143011 -54.48027854 328.96360249 -54.49462891 353.96582031 C-54.51070974 382.07673478 -54.51705284 410.18762383 -54.50779212 438.29854226 C-54.50683002 441.29811112 -54.50589149 444.29767998 -54.50496292 447.29724884 C-54.50472569 448.03578073 -54.50448846 448.77431261 -54.50424404 449.53522425 C-54.50083802 460.66604506 -54.50481061 471.79684745 -54.51240158 482.92766571 C-54.52099596 495.59270421 -54.51879986 508.25769051 -54.50255935 520.92272255 C-54.49469135 527.38136914 -54.49155993 533.83992288 -54.50150681 540.29856873 C-54.51048491 546.21787809 -54.50546951 552.13700903 -54.48957415 558.05630234 C-54.48623946 560.19080192 -54.48789063 562.32531675 -54.49520151 564.45980641 C-54.61355605 590.441004 -54.61355605 590.441004 -42.22070312 612.60351562 C-29.78821069 624.53266828 -12.47141316 623.81774463 3.58032227 623.80810547 C5.57389577 623.81409694 7.56746697 623.8209039 9.56103516 623.82846069 C14.95605298 623.84606815 20.35100729 623.85081395 25.74605107 623.85209227 C29.12424513 623.85351778 32.50242324 623.85779502 35.88061333 623.8630867 C47.68791598 623.88157193 59.49517359 623.88975949 71.30249023 623.88818359 C82.27237801 623.88698368 93.24206857 623.90806056 104.21190649 623.93967092 C113.65858948 623.96591265 123.10520839 623.97654754 132.55192751 623.97527277 C138.18120959 623.97476532 143.81031639 623.98032766 149.43956184 624.00162888 C154.74124756 624.02114388 160.04259323 624.0210459 165.34429169 624.00659561 C167.27707103 624.00452253 169.20987241 624.00911745 171.14261436 624.02131653 C186.67419274 624.11290533 203.98828902 623.88956956 215.89648438 612.51757812 C229.01782768 598.39651343 228.19342135 581.86786976 228.17063904 563.75726318 C228.1750947 561.52694115 228.18040982 559.29662069 228.18650776 557.06630254 C228.20065836 550.95185092 228.20235161 544.8374502 228.20191085 538.72298455 C228.20339195 532.80127655 228.21420692 526.87958726 228.22460215 520.95788981 C228.24929663 506.60616704 228.25811974 492.25445588 228.26313864 477.90271478 C228.2635304 476.78889772 228.2635304 476.78889772 228.26393008 475.65257931 C228.26432049 474.53645974 228.26432049 474.53645974 228.26471879 473.39779231 C228.26780481 465.14103993 228.27431079 456.88429075 228.28093147 448.62754059 C228.30057331 423.67782625 228.31698159 398.72811536 228.31980801 373.77839279 C228.3199491 372.58225837 228.3199491 372.58225837 228.32009304 371.36195962 C228.32047151 368.13053344 228.32083551 364.89910727 228.32119602 361.66768109 C228.32146774 359.23564807 228.32174442 356.80361505 228.32202148 354.37158203 C228.32210951 353.56794527 228.32219753 352.76430851 228.32228822 351.93631912 C228.32519364 326.68586451 228.3472927 301.43548646 228.38354492 276.18505859 C228.42429751 247.79948549 228.44796676 219.41396456 228.44826752 191.02836061 C228.44836434 187.99986664 228.44853105 184.97137268 228.44874763 181.94287872 C228.44879175 181.19721716 228.44883586 180.4515556 228.44888131 179.68329824 C228.44999967 167.70035241 228.46738631 155.71748351 228.49056695 143.73456244 C228.51344267 131.68554387 228.51761326 119.63662889 228.50301766 107.58759657 C228.49559882 101.06422447 228.4967043 94.54106493 228.51942825 88.01771736 C228.54005061 82.04034722 228.53738676 76.06344654 228.51655341 70.0860813 C228.51306488 67.92935719 228.51794127 65.77259897 228.53225785 63.61591956 C228.6201201 49.46254173 228.21886224 33.28732606 218.45898438 21.83007812 C203.47336766 9.24216009 187.68355423 9.21558483 169.03979492 9.24291992 C167.06386117 9.23856463 165.08792911 9.23337877 163.11199951 9.22743225 C157.77920122 9.21411859 152.44647413 9.21345506 147.11366248 9.21599555 C142.64589241 9.21707052 138.17813644 9.21216848 133.71036941 9.20739013 C123.16147563 9.19632122 112.61261747 9.1958427 102.0637207 9.2019043 C91.21704622 9.20794161 80.37050154 9.19563315 69.52384919 9.17433423 C60.17818306 9.15666419 50.83255804 9.15072539 41.48687583 9.15397197 C35.91974434 9.15577645 30.35270544 9.15323266 24.78558922 9.13925743 C19.54628703 9.12659553 14.30718579 9.12870156 9.06788635 9.14166832 C7.15726462 9.14401559 5.24662838 9.14136673 3.33602333 9.1330452 C-17.05236716 9.01261558 -17.05236716 9.01261558 -36.10351562 15.51757812 Z " fill="#010102" transform="translate(283.103515625,52.482421875)"/>
<path d="M0 0 C2.09755436 -0.00543038 4.1951049 -0.01255814 6.29264832 -0.02124023 C11.95176612 -0.03936751 17.61058996 -0.03244999 23.26971245 -0.01972389 C29.21419903 -0.00954107 35.15866176 -0.01900416 41.10314941 -0.02526855 C51.0826465 -0.03252963 61.06202487 -0.02299771 71.04150391 -0.00390625 C82.55118465 0.01785942 94.06058188 0.01080696 105.57025576 -0.01121187 C115.48237664 -0.02940979 125.39441257 -0.03190275 135.30654478 -0.0214572 C141.21342835 -0.01524639 147.120179 -0.01431991 153.02705383 -0.02760315 C158.58242769 -0.03922508 164.13743882 -0.03102061 169.69277382 -0.00802612 C171.72194634 -0.00277278 173.7511498 -0.00419434 175.78030968 -0.01307678 C192.25213956 -0.07848936 210.35882421 1.3281863 222.89648438 13.51757812 C234.5406687 26.94595198 237.38960448 42.27707367 237.23706055 59.68310547 C237.23621142 61.03490683 237.23669496 62.38670957 237.23838806 63.73851013 C237.23923834 67.35959205 237.22177234 70.98036739 237.20066619 74.60137892 C237.18173528 78.40363929 237.18013617 82.205909 237.17658997 86.00820923 C237.16731718 93.18662633 237.14276899 100.36490409 237.1125415 107.54326022 C237.07884778 115.72478794 237.06247409 123.9063228 237.04745519 132.08790278 C237.01621435 148.89787574 236.96354813 165.70770907 236.89648438 182.51757812 C237.55648438 182.51757812 238.21648437 182.51757812 238.89648438 182.51757812 C238.89648438 183.17757812 238.89648438 183.83757812 238.89648438 184.51757812 C238.23648437 184.51757812 237.57648438 184.51757812 236.89648438 184.51757812 C236.89648438 203.98757813 236.89648438 223.45757812 236.89648438 243.51757812 C237.55648438 243.51757812 238.21648437 243.51757812 238.89648438 243.51757812 C238.89648438 244.83757812 238.89648438 246.15757812 238.89648438 247.51757812 C238.23648437 247.51757812 237.57648438 247.51757812 236.89648438 247.51757812 C236.89724382 248.23548893 236.89800326 248.95339973 236.89878571 249.6930654 C236.94351255 292.21380109 236.97784266 334.73453422 236.99861503 377.25528871 C237.00111654 382.35736699 237.00370517 387.45944522 237.00634766 392.56152344 C237.00713459 394.08516311 237.00713459 394.08516311 237.00793742 395.63958338 C237.01664719 412.10066487 237.03242031 428.56173244 237.05078997 445.02280566 C237.0694731 461.90520937 237.08059773 478.78760577 237.08466136 495.67001939 C237.08740972 506.09281747 237.09609958 516.51557618 237.11231731 526.93836215 C237.12286462 534.07934638 237.12609013 541.22031017 237.12348713 548.36130163 C237.12220232 552.48526683 237.12421349 556.60916311 237.13489532 560.73311615 C237.14459615 564.50575773 237.14514001 568.27828374 237.13828216 572.05093053 C237.13703109 574.06809196 237.14568528 576.08525195 237.15464699 578.10239387 C237.1506649 579.29471256 237.1466828 580.48703125 237.14258003 581.7154808 C237.14333947 582.74680122 237.14409891 583.77812164 237.14488137 584.84069419 C236.88907357 587.59744167 236.25878111 589.14343257 234.89648438 591.51757812 C234.56648438 592.50757813 234.23648437 593.49757813 233.89648438 594.51757812 C233.23648437 594.51757812 232.57648438 594.51757812 231.89648438 594.51757812 C232.0022045 593.68809603 232.0022045 593.68809603 232.11006039 592.84185672 C233.20927748 582.82785374 233.04507434 572.79767814 233.0436554 562.73809814 C233.04695851 560.61405074 233.05068501 558.49000397 233.05479687 556.36595798 C233.06477459 550.54464368 233.06852685 544.7233397 233.07118618 538.90201807 C233.07510197 532.6166201 233.08467955 526.3312302 233.09339905 520.0458374 C233.1121976 505.58888115 233.12241554 491.1319259 233.13085973 476.67496048 C233.13507486 469.51859335 233.14029579 462.36222706 233.14554426 455.20586063 C233.16343374 430.67186582 233.17842464 406.13787075 233.18586445 381.60387039 C233.18633919 380.06494325 233.18681508 378.52601611 233.18729211 376.98708896 C233.18752849 376.2239746 233.18776486 375.46086024 233.1880084 374.6746212 C233.1892095 370.80879694 233.19042499 366.94297269 233.19165039 363.07714844 C233.19189054 362.3099852 233.19213069 361.54282197 233.19237812 360.75241136 C233.20025863 335.91864784 233.22366499 311.08493227 233.25620633 286.25118965 C233.29060781 259.94946424 233.31022527 233.64776682 233.31350869 207.34601855 C233.31392617 204.45092184 233.31440572 201.55582515 233.31493187 198.66072845 C233.31505506 197.94795812 233.31517825 197.23518779 233.31530518 196.50081836 C233.31762478 185.09381814 233.33321523 173.68687416 233.35377372 162.27989389 C233.37416533 150.78174655 233.37911684 139.28369057 233.37000308 127.7855238 C233.36548927 121.57207086 233.3671724 115.35879815 233.38676453 109.14537048 C233.5930303 78.34097159 233.5930303 78.34097159 231.30461121 47.64910889 C231.17462559 46.47355855 231.04463997 45.29800822 230.9107154 44.08683515 C229.06362331 31.14681126 223.13476465 21.45554497 212.89648438 13.51757812 C211.89579457 12.58081445 210.89570717 11.64340646 209.89648438 10.70507812 C201.19408914 4.3595816 190.22687841 4.35907507 179.84178162 4.39732361 C178.9765458 4.39646918 178.11130998 4.39561476 177.21985489 4.39473444 C174.34568565 4.39309869 171.4715759 4.39856957 168.59741211 4.40405273 C166.5271454 4.40433504 164.45687859 4.40417602 162.38661194 4.40361023 C156.78400896 4.40332396 151.18142751 4.40919312 145.57882953 4.41618419 C139.71719138 4.42244613 133.85555272 4.42302377 127.99391174 4.42420959 C116.90192577 4.42731454 105.80994968 4.43551664 94.71796805 4.44555908 C82.08680388 4.45674621 69.45563924 4.46223722 56.82447135 4.46725452 C30.84847022 4.47769996 4.87247785 4.49528319 -21.10351562 4.51757812 C-21.43351562 5.17757812 -21.76351562 5.83757813 -22.10351562 6.51757812 C-22.86664063 6.45570312 -23.62976563 6.39382812 -24.41601562 6.33007812 C-27.10117507 6.21808404 -27.10117507 6.21808404 -28.41210938 7.85742188 C-30.63980141 10.04395562 -33.01408643 10.98479032 -35.85351562 12.26757812 C-45.83980515 17.21259619 -49.57486467 22.55824789 -53.84179688 32.82226562 C-55.10351562 35.51757812 -55.10351562 35.51757812 -57.10351562 36.51757812 C-59.15371371 42.90974069 -59.39403072 49.55774702 -59.36522865 56.21267128 C-59.36922472 57.13930826 -59.37322078 58.06594524 -59.37733793 59.02066213 C-59.38827018 62.11267615 -59.38511684 65.20450997 -59.38198853 68.29653931 C-59.38699376 70.5408137 -59.39287022 72.7850863 -59.39954126 75.02935636 C-59.41532764 81.18642512 -59.4187712 87.34344822 -59.42018986 93.50053477 C-59.42350648 99.46135726 -59.43616316 105.42215788 -59.44858973 111.38296671 C-59.47367945 123.57232871 -59.48956435 135.76168636 -59.50017166 147.95106888 C-59.51070178 160.01705483 -59.52534245 172.08302432 -59.54545212 184.14899826 C-59.54670099 184.89971082 -59.54794985 185.65042338 -59.54923656 186.4238848 C-59.55560047 190.23649966 -59.56203761 194.04911439 -59.56850295 197.86172907 C-59.61414452 224.85426262 -59.65060121 251.84680151 -59.68164062 278.83935547 C-59.71181278 305.05941552 -59.74615514 331.2794647 -59.78613281 357.49951172 C-59.78736382 358.30797476 -59.78859482 359.1164378 -59.78986313 359.94939973 C-59.80223017 368.06844641 -59.81468187 376.18749295 -59.82719561 384.30653941 C-59.85268475 400.84542129 -59.87760884 417.384304 -59.90219116 433.92318726 C-59.90332207 434.68358935 -59.90445298 435.44399145 -59.90561816 436.22743603 C-59.98105128 486.99080418 -60.04327197 537.75418994 -60.10351562 588.51757812 C-61.09351563 588.51757812 -62.08351562 588.51757812 -63.10351562 588.51757812 C-63.10351562 480.60757812 -63.10351562 372.69757812 -63.10351562 261.51757812 C-63.76351562 261.51757812 -64.42351562 261.51757812 -65.10351562 261.51757812 C-64.9450415 261.01452148 -64.78656738 260.51146484 -64.62329102 259.99316406 C-63.91984941 256.64281276 -63.86837723 253.31787809 -63.78710938 249.90820312 C-63.76632828 249.18139343 -63.74554718 248.45458374 -63.72413635 247.70574951 C-63.6589605 245.39311821 -63.59990523 243.08037719 -63.54101562 240.76757812 C-63.49779996 239.19595238 -63.45418471 237.62433756 -63.41015625 236.05273438 C-63.30331207 232.2077936 -63.20195539 228.36274288 -63.10351562 224.51757812 C-63.76351562 224.51757812 -64.42351562 224.51757812 -65.10351562 224.51757812 C-65.10351562 223.52757812 -65.10351562 222.53757812 -65.10351562 221.51757812 C-64.44351563 221.51757812 -63.78351563 221.51757812 -63.10351562 221.51757812 C-63.10351562 217.22757813 -63.10351562 212.93757812 -63.10351562 208.51757812 C-63.76351562 208.51757812 -64.42351562 208.51757812 -65.10351562 208.51757812 C-65.10351562 204.22757813 -65.10351562 199.93757812 -65.10351562 195.51757812 C-64.44351563 195.51757812 -63.78351563 195.51757812 -63.10351562 195.51757812 C-63.10351562 186.93757812 -63.10351562 178.35757813 -63.10351562 169.51757812 C-63.76351562 169.51757812 -64.42351562 169.51757812 -65.10351562 169.51757812 C-65.10351562 168.52757812 -65.10351562 167.53757813 -65.10351562 166.51757812 C-64.44351563 166.51757812 -63.78351563 166.51757812 -63.10351562 166.51757812 C-63.10351562 159.58757812 -63.10351562 152.65757812 -63.10351562 145.51757812 C-63.76351562 145.51757812 -64.42351562 145.51757812 -65.10351562 145.51757812 C-65.10351562 142.54757813 -65.10351562 139.57757813 -65.10351562 136.51757812 C-64.44351563 136.51757812 -63.78351563 136.51757812 -63.10351562 136.51757812 C-63.10351562 131.89757812 -63.10351562 127.27757812 -63.10351562 122.51757812 C-63.76351562 122.51757812 -64.42351562 122.51757812 -65.10351562 122.51757812 C-65.10351562 121.52757812 -65.10351562 120.53757812 -65.10351562 119.51757812 C-64.44351563 119.51757812 -63.78351563 119.51757812 -63.10351562 119.51757812 C-63.11239807 118.6135022 -63.12128052 117.70942627 -63.13043213 116.7779541 C-63.21113178 108.18876267 -63.27175825 99.59970158 -63.31076431 91.01021576 C-63.33149301 86.59599924 -63.35953536 82.18210026 -63.40527344 77.76806641 C-63.44926432 73.49510147 -63.47276283 69.22243873 -63.4830246 64.94926453 C-63.49032182 63.33244581 -63.50456611 61.71564051 -63.52643585 60.09895325 C-63.75314859 42.61789834 -61.20920279 26.9021063 -48.79101562 13.70507812 C-34.94100913 0.63729791 -18.02893742 -0.07891985 0 0 Z " fill="#846F5D" transform="translate(283.103515625,52.482421875)"/>
<path d="M0 0 C1.43674403 0.01053331 2.87351263 0.01809495 4.31028748 0.02282715 C8.08209973 0.04381257 11.85203714 0.10765297 15.62316895 0.17980957 C18.69753016 0.23162556 21.77175949 0.25363484 24.84646702 0.27393341 C31.2086375 0.3162861 37.57055094 0.38236946 43.93188477 0.49414062 C45.0574025 0.51303345 46.18292023 0.53192627 47.34254456 0.5513916 C54.64652104 0.9550112 54.64652104 0.9550112 57.68359375 4.15625 C60.10780546 9.27403027 60.39184636 14.38593123 58.72265625 19.8359375 C56.73861267 22.59983636 54.47932917 23.39798222 51.37109375 24.71875 C48.33618164 25.0929718 48.33618164 25.0929718 45.09375 25.09106445 C43.87228271 25.09729324 42.65081543 25.10352203 41.39233398 25.10993958 C40.08594971 25.10072983 38.77956543 25.09152008 37.43359375 25.08203125 C36.06648764 25.0815119 34.69938077 25.0820325 33.33227539 25.08354187 C30.47433242 25.08345242 27.61667313 25.07307947 24.75878906 25.05493164 C21.10720429 25.0322453 17.45603344 25.0317033 13.80439758 25.03844929 C10.98356489 25.04180098 8.16282546 25.03513666 5.3420105 25.02532005 C3.34463268 25.01963385 1.34723895 25.0208996 -0.65014648 25.02229309 C-1.87161377 25.01276108 -3.09308105 25.00322906 -4.3515625 24.9934082 C-5.42156494 24.98880081 -6.49156738 24.98419342 -7.59399414 24.97944641 C-12.0998903 24.5923937 -15.52725024 23.64646032 -19.00390625 20.71875 C-21.30417612 16.47209793 -21.8946906 12.41440162 -20.62890625 7.71875 C-16.2795221 -1.13456533 -8.79154719 -0.21639323 0 0 Z " fill="#020103" transform="translate(350.62890625,70.28125)"/>
<path d="M0 0 C1.48717691 3.86665996 0.34016247 6.20287302 -1 10 C-1.98774183 15.48058137 -2.14532761 20.78083304 -2.1386652 26.32594967 C-2.14150742 27.24912512 -2.14434964 28.17230056 -2.14727798 29.12345102 C-2.15561025 32.22170893 -2.15689205 35.31992938 -2.15821838 38.41819763 C-2.16278473 40.65988172 -2.16778486 42.90156495 -2.17318195 45.14324719 C-2.18676417 51.30708288 -2.19418168 57.47091305 -2.20060861 63.63475978 C-2.20779037 69.59789436 -2.2196123 75.5610192 -2.23132664 81.52414619 C-2.25512752 93.721526 -2.27433576 105.91890901 -2.29092598 118.11630058 C-2.30736723 130.19313431 -2.32585009 142.26996207 -2.34705925 154.34678841 C-2.34837686 155.09770718 -2.34969446 155.84862596 -2.351052 156.62229985 C-2.35775409 160.43584154 -2.36449265 164.24938316 -2.37124526 168.06292475 C-2.41900751 195.07376371 -2.46219277 222.08460823 -2.50268555 249.09545898 C-2.54203404 275.336023 -2.58345624 301.57658241 -2.62768555 327.81713867 C-2.62904808 328.62599629 -2.63041061 329.43485391 -2.63181442 330.26822237 C-2.64549981 338.39110786 -2.65922734 346.51399327 -2.67298577 354.63687863 C-2.70101226 371.18411192 -2.7287574 387.73134567 -2.7563324 404.27857971 C-2.7576006 405.03939368 -2.7588688 405.80020765 -2.76017542 406.58407658 C-2.84483041 457.38937691 -2.92290606 508.1946877 -3 559 C-3.99 559 -4.98 559 -6 559 C-6 451.09 -6 343.18 -6 232 C-6.66 232 -7.32 232 -8 232 C-7.84152588 231.49694336 -7.68305176 230.99388672 -7.51977539 230.47558594 C-6.81633378 227.12523464 -6.7648616 223.80029997 -6.68359375 220.390625 C-6.66281265 219.66381531 -6.64203156 218.93700562 -6.62062073 218.18817139 C-6.55544488 215.87554009 -6.4963896 213.56279907 -6.4375 211.25 C-6.39428434 209.67837425 -6.35066908 208.10675944 -6.30664062 206.53515625 C-6.19979644 202.69021547 -6.09843976 198.84516476 -6 195 C-6.66 195 -7.32 195 -8 195 C-8 194.01 -8 193.02 -8 192 C-7.34 192 -6.68 192 -6 192 C-6 187.71 -6 183.42 -6 179 C-6.66 179 -7.32 179 -8 179 C-8 174.71 -8 170.42 -8 166 C-7.34 166 -6.68 166 -6 166 C-6 157.42 -6 148.84 -6 140 C-6.66 140 -7.32 140 -8 140 C-8 139.01 -8 138.02 -8 137 C-7.34 137 -6.68 137 -6 137 C-6 130.07 -6 123.14 -6 116 C-6.66 116 -7.32 116 -8 116 C-8 113.03 -8 110.06 -8 107 C-7.34 107 -6.68 107 -6 107 C-6 102.38 -6 97.76 -6 93 C-6.66 93 -7.32 93 -8 93 C-8 92.01 -8 91.02 -8 90 C-7.34 90 -6.68 90 -6 90 C-6.00666183 89.08704163 -6.01332367 88.17408325 -6.02018738 87.23345947 C-6.08056856 78.58413307 -6.12611078 69.93487855 -6.15543652 61.28538895 C-6.17102054 56.83974384 -6.19212424 52.39427447 -6.22631836 47.94873047 C-6.25917329 43.64986215 -6.27690747 39.35116172 -6.28463173 35.05217743 C-6.29012875 33.42090974 -6.30086155 31.78965012 -6.31719017 30.1584549 C-6.4077856 20.72364995 -5.92211391 12.07924048 -3 3 C-2.34 3 -1.68 3 -1 3 C-0.67 2.01 -0.34 1.02 0 0 Z " fill="#BDA595" transform="translate(226,82)"/>
<path d="M0 0 C0.33 0 0.66 0 1 0 C2.3030873 3.9092619 2.52612168 5.87353884 0.75390625 9.66796875 C-7.42957669 22.88183319 -17.21271196 29.58929841 -32.33203125 33.45703125 C-38.45228343 34.7025877 -44.33779522 35.14621379 -50.55708313 35.13371277 C-51.81116345 35.1371111 -51.81116345 35.1371111 -53.09057873 35.14057809 C-55.8785153 35.1468837 -58.66640282 35.14609094 -61.4543457 35.14526367 C-63.45883242 35.1482573 -65.46331857 35.15166031 -67.46780396 35.15544128 C-72.90384101 35.1642646 -78.33986232 35.16661869 -83.77590585 35.16725707 C-87.17462785 35.16796851 -90.57334587 35.17010461 -93.97206688 35.17275429 C-105.83611683 35.18200211 -117.70015555 35.18608987 -129.56420898 35.18530273 C-140.61193259 35.18470206 -151.65960735 35.19525338 -162.7073186 35.2110464 C-172.20223193 35.22413452 -181.69712931 35.2294861 -191.19205159 35.22884732 C-196.85854923 35.22859272 -202.52500345 35.23142344 -208.19149208 35.24202538 C-213.52258227 35.25172777 -218.85358771 35.25177083 -224.18468094 35.24450874 C-226.13651974 35.24346557 -228.08836388 35.24580984 -230.04019356 35.2518692 C-248.72110185 35.30608759 -248.72110185 35.30608759 -257 33 C-257.928125 32.78859375 -258.85625 32.5771875 -259.8125 32.359375 C-269.11069904 29.76916241 -278.16058373 24.89938527 -284 17 C-285.0396037 14.61310721 -285.5256326 12.58266695 -286 10 C-282.6509756 11.40935083 -281.00316671 13.00820159 -278.8125 15.875 C-274.24068675 21.30402823 -268.78700082 23.42198401 -262 25 C-262 25.66 -262 26.32 -262 27 C-261.0925 27.12375 -260.185 27.2475 -259.25 27.375 C-256 28 -256 28 -254.32812691 29.02318954 C-250.80102296 30.5030539 -247.26365546 30.27468984 -243.49996948 30.25396729 C-242.63381079 30.25708727 -241.76765209 30.26020725 -240.87524617 30.26342177 C-237.96738043 30.2714109 -235.05972284 30.2650744 -232.15185547 30.25878906 C-230.06899391 30.26149864 -227.98613331 30.26505938 -225.90327454 30.26940918 C-220.23977363 30.27854283 -214.57634544 30.27498399 -208.91284323 30.26865101 C-202.98511654 30.26359204 -197.05739612 30.26828255 -191.12966919 30.27142334 C-181.16781496 30.27506499 -171.20599036 30.27026046 -161.24414062 30.26074219 C-149.73806973 30.24987518 -138.23206982 30.25336967 -126.72600067 30.264395 C-116.8447353 30.2734836 -106.96349126 30.27474491 -97.08222306 30.26951766 C-91.18206058 30.26640431 -85.2819314 30.26597081 -79.38177109 30.27259064 C-73.82828405 30.27838568 -68.274888 30.27432769 -62.72141075 30.26280212 C-60.68733687 30.26016631 -58.65325527 30.26090213 -56.61918449 30.26532745 C-53.83333178 30.27082751 -51.04776697 30.26389483 -48.26193237 30.25396729 C-47.46501728 30.25842873 -46.66810219 30.26289017 -45.84703815 30.26748681 C-38.24154944 30.21525344 -26.7794141 29.69316192 -21.1171875 24.16015625 C-20.06917969 23.09087891 -20.06917969 23.09087891 -19 22 C-17.52263445 20.74371909 -16.02218302 19.51408626 -14.5 18.3125 C-13.7471875 17.71050781 -12.994375 17.10851562 -12.21875 16.48828125 C-10 15 -10 15 -7.78125 14.453125 C-7.1934375 14.30359375 -6.605625 14.1540625 -6 14 C-4.91114536 11.32186171 -4.91114536 11.32186171 -4 8 C-2.74564556 5.29195573 -1.38266783 2.64452002 0 0 Z " fill="#6E5E52" transform="translate(514,650)"/>
<path d="M0 0 C2.24879254 4.49758508 2.27958863 7.87077759 2.25333309 12.75314617 C2.25643036 13.65088321 2.25952764 14.54862025 2.26271877 15.47356144 C2.27072576 18.50357209 2.26442076 21.53338759 2.25828552 24.56340027 C2.26113832 26.7491318 2.26487532 28.93486233 2.26942402 31.12059098 C2.27943816 37.14438826 2.27702273 43.16812752 2.27269709 49.19192922 C2.27022718 55.68236762 2.27928128 62.17279053 2.28707886 68.66322327 C2.29945679 79.91799816 2.30425702 91.17276051 2.30496025 102.42754173 C2.30613848 118.71870513 2.3213368 135.00983471 2.34045542 151.30098585 C2.34935571 158.89126348 2.35762504 166.4815418 2.36577702 174.07182026 C2.36659477 174.83175875 2.36741252 175.59169724 2.36825505 176.37466418 C2.38760163 194.47072022 2.40113561 212.56677969 2.41333008 230.6628418 C2.41386687 231.45474366 2.41440366 232.24664552 2.41495672 233.06254441 C2.42744306 251.52531766 2.43822346 269.98809133 2.44702148 288.4508667 C2.45009123 294.84802247 2.45318364 301.24517823 2.45629883 307.64233398 C2.45668064 308.43183355 2.45706246 309.22133311 2.45745584 310.03475691 C2.46622502 328.07313286 2.4773992 346.11150162 2.49742985 364.14986897 C2.49827251 364.90894159 2.49911518 365.66801421 2.49998338 366.45008904 C2.50846865 374.03053297 2.51746415 381.61097615 2.52717515 389.19141861 C2.53193637 392.92161669 2.53655192 396.65181493 2.54106331 400.38201332 C2.54195119 401.11611718 2.54283907 401.85022105 2.54375386 402.60657048 C2.55766094 414.40072137 2.56032804 426.19484923 2.55838365 437.98900709 C2.5565843 449.85631131 2.56528481 461.72356945 2.58469205 473.5908583 C2.59471736 480.01514171 2.59988635 486.43933235 2.59192467 492.86362076 C2.58471286 498.75308094 2.59140241 504.64236093 2.60881007 510.53179828 C2.61267228 512.65444049 2.61155455 514.77709933 2.60475319 516.89973416 C2.57191422 528.03818928 3.05015954 538.55947543 5.35729462 549.47628003 C5.95400919 552.74784908 6.12074945 555.68547951 6 559 C5.34 559.33 4.68 559.66 4 560 C3.67 558.68 3.34 557.36 3 556 C2.34 556 1.68 556 1 556 C-2.44419134 545.62642369 -2.44419134 545.62642369 -2 540 C-1.67 540 -1.34 540 -1 540 C-0.505 272.7 -0.505 272.7 0 0 Z " fill="#171412" transform="translate(223,99)"/>
<path d="M0 0 C0.33 0 0.66 0 1 0 C1.82036036 5.72761759 2.14336066 11.2621435 2.12863445 17.04345417 C2.13038749 17.92396693 2.13214053 18.80447969 2.13394669 19.71167466 C2.13859452 22.65889861 2.13614432 25.60607297 2.13371277 28.55329895 C2.13558135 30.68901077 2.13788224 32.82472225 2.14057809 34.96043319 C2.14669661 40.82714076 2.14656243 46.69383409 2.14538372 52.56054413 C2.14517972 58.8885553 2.1506983 65.21656189 2.15544128 71.54457092 C2.16374853 83.94118961 2.16650911 96.33780257 2.16705366 108.73442367 C2.16751336 118.80994104 2.16957251 128.88545687 2.17275429 138.96097374 C2.17365184 141.86211751 2.17454166 144.76326128 2.17542917 147.66440505 C2.17565021 148.38565396 2.17587126 149.10690288 2.17609901 149.85000782 C2.18225231 170.13452407 2.18619966 190.41903979 2.18575573 210.70355701 C2.18574015 211.4681731 2.18572457 212.23278918 2.18570852 213.02057545 C2.18562541 216.89589378 2.18552637 220.7712121 2.18542381 224.64653043 C2.1853939 225.80099171 2.1853939 225.80099171 2.18536337 226.97877545 C2.18532294 228.5351762 2.18528114 230.09157695 2.18523798 231.6479777 C2.1846252 255.86403866 2.19213265 280.08008562 2.20581055 304.29614258 C2.22117417 331.5078694 2.22977661 358.71958703 2.22884732 385.93131846 C2.22877269 388.8334053 2.22872399 391.73549213 2.22869301 394.63757896 C2.22868135 395.35213726 2.2286697 396.06669555 2.22865769 396.80290712 C2.22862693 408.29675711 2.2350099 419.79059493 2.24362527 431.2844413 C2.25210587 442.83748211 2.25291705 454.39049889 2.24651595 465.94354228 C2.24324737 472.20102506 2.24320632 478.45846378 2.2518692 484.71594238 C2.25972002 490.44575193 2.25831722 496.17548238 2.24958507 501.90528997 C2.24804697 503.97656564 2.24987789 506.04784717 2.25544515 508.11911593 C2.30538741 528.02012365 2.30538741 528.02012365 0 537 C0.66 537 1.32 537 2 537 C2.33 533.7 2.66 530.4 3 527 C3.33 527 3.66 527 4 527 C4.36517527 533.57315478 3.13619737 538.79485526 1 545 C0.34 543.68 -0.32 542.36 -1 541 C-2.98 545.29 -4.96 549.58 -7 554 C-7.66 554 -8.32 554 -9 554 C-8.01642386 551.52788675 -7.02531146 549.06060908 -6 546.60546875 C-5.67 545.80753906 -5.34 545.00960937 -5 544.1875 C-4.67 543.39730469 -4.34 542.60710938 -4 541.79296875 C-1.55544732 534.96540949 -0.70668611 528.91708788 -0.73828697 521.72279358 C-0.73229288 520.36415781 -0.73229288 520.36415781 -0.72617769 518.97807485 C-0.71521469 515.94504436 -0.71840315 512.91219665 -0.7215271 509.87915039 C-0.71652361 507.68197486 -0.71064766 505.48480117 -0.70397437 503.28763008 C-0.68816684 497.25145977 -0.68474326 491.21533599 -0.68332577 485.17914748 C-0.67963306 478.66932966 -0.66447821 472.1595374 -0.65071106 465.6497345 C-0.62808745 454.37153494 -0.61335265 443.09334188 -0.60334396 431.81512451 C-0.59281752 419.98751878 -0.57818092 408.15992988 -0.55806351 396.33233643 C-0.55619021 395.22893609 -0.55619021 395.22893609 -0.55427906 394.10324484 C-0.54791525 390.36745256 -0.54147808 386.63166041 -0.53501268 382.8958683 C-0.48935869 356.4401905 -0.45290731 329.98450724 -0.421875 303.52880859 C-0.3917078 277.82860514 -0.35736775 252.12841279 -0.31738281 226.42822266 C-0.31553631 225.23978544 -0.31553631 225.23978544 -0.3136525 224.02733938 C-0.30128557 216.07077086 -0.28883385 208.11420247 -0.27632002 200.15763418 C-0.25083017 183.94940987 -0.22590621 167.7411847 -0.20132446 151.53295898 C-0.20019355 150.78774269 -0.19906264 150.04252639 -0.19789747 149.27472778 C-0.12245133 99.516498 -0.06023737 49.75825026 0 0 Z " fill="#241D14" transform="translate(515,110)"/>
<path d="M0 0 C2.60556067 3.908341 2.28370203 7.19446957 2.26729965 11.72888088 C2.27189491 12.63611232 2.27649016 13.54334377 2.28122467 14.47806707 C2.29429405 17.54625248 2.29303054 20.61426909 2.29193115 23.68247986 C2.29836073 25.89311387 2.30566047 28.1037455 2.31376004 30.31437403 C2.33352414 36.41112074 2.34075272 42.50782902 2.34599233 48.60460317 C2.3529769 54.49747965 2.36928635 60.39032528 2.38532325 66.28318299 C2.41977512 79.08485781 2.44277539 91.88653422 2.4609501 104.68824136 C2.47687977 115.8916477 2.49649689 127.09503988 2.51981354 138.2984333 C2.52135265 139.04072846 2.52289177 139.78302362 2.52447753 140.54781256 C2.53072731 143.56081745 2.53699106 146.57382231 2.5432779 149.58682712 C2.60221701 177.86931465 2.64949793 206.15181129 2.69159612 234.43432831 C2.72909196 259.57595431 2.77693552 284.71754068 2.83349609 309.85913086 C2.89696501 338.08740686 2.95395793 366.31568365 3.0004847 394.54399306 C3.00546004 397.55191237 3.01045135 400.55983166 3.01544952 403.56775093 C3.01667452 404.3084104 3.01789952 405.04906986 3.01916163 405.81217355 C3.03779543 417.00938012 3.06139794 428.20656923 3.08739471 439.40376091 C3.11692009 452.13301524 3.13930836 464.86225966 3.15219894 477.59154218 C3.15906114 484.09116218 3.16918598 490.59073456 3.18795204 497.09033203 C3.20502003 503.03337624 3.21291421 508.97635738 3.21330455 514.91942544 C3.21508402 517.07619519 3.22029336 519.23296523 3.2291691 521.38971745 C3.24068045 524.30831846 3.23997865 527.22666302 3.23606491 530.14527798 C3.24235159 530.99384154 3.24863827 531.8424051 3.25511545 532.7166827 C3.23698047 536.65733519 3.15384829 539.64082676 1 543 C0.67 543.99 0.34 544.98 0 546 C-0.66 546 -1.32 546 -2 546 C-1.92964808 545.45691954 -1.85929616 544.91383908 -1.78681237 544.35430163 C-0.64680862 534.05352767 -0.84629652 523.71501415 -0.84178162 513.36653137 C-0.83721167 511.15026867 -0.83221101 508.93400682 -0.82681805 506.71774596 C-0.81327685 500.64275871 -0.80583025 494.56777703 -0.79939139 488.49277866 C-0.79219412 482.60981918 -0.78037554 476.72687017 -0.76867336 470.84391819 C-0.74490469 458.8150007 -0.72568298 446.78607999 -0.70907402 434.75715065 C-0.69261977 422.85108817 -0.67413149 410.9450317 -0.65294075 399.03897667 C-0.65162314 398.29803728 -0.65030554 397.55709789 -0.648948 396.79370579 C-0.6422457 393.03068025 -0.63550719 389.26765478 -0.62875474 385.50462934 C-0.58102182 358.86759401 -0.53782816 332.23055307 -0.49731445 305.59350586 C-0.45795134 279.71980379 -0.41652562 253.84610637 -0.37231445 227.97241211 C-0.37027066 226.77560242 -0.37027066 226.77560242 -0.36818558 225.55461476 C-0.35449992 217.54187155 -0.34077241 209.52912842 -0.32701423 201.51638534 C-0.29898948 185.19424815 -0.27124405 168.87211049 -0.2436676 152.54997253 C-0.2423994 151.79954615 -0.2411312 151.04911977 -0.23982458 150.27595319 C-0.15520259 100.18397632 -0.0771121 50.09198893 0 0 Z " fill="#AB907B" transform="translate(517,101)"/>
<path d="M0 0 C6.02359962 0.40635731 12.05045439 0.26470814 18.08349609 0.1942749 C44.50397921 -0.08449356 44.50397921 -0.08449356 54.46337891 2.23364258 C55.45337891 3.22364258 55.45337891 3.22364258 56.46337891 4.23364258 C51.4927477 5.14661566 47.43401011 5.14661566 42.46337891 4.23364258 C42.46337891 4.89364258 42.46337891 5.55364258 42.46337891 6.23364258 C44.11337891 6.23364258 45.76337891 6.23364258 47.46337891 6.23364258 C47.46337891 6.56364258 47.46337891 6.89364258 47.46337891 7.23364258 C29.61807041 7.25697084 11.77276585 7.27462139 -6.07255459 7.28545475 C-14.35786383 7.29061786 -22.64316362 7.29766085 -30.9284668 7.30908203 C-38.14731717 7.31902841 -45.3661607 7.32549589 -52.58501774 7.32773107 C-56.40970365 7.32903826 -60.23436996 7.33212461 -64.05904961 7.33937263 C-67.65487896 7.34613212 -71.25068055 7.34825969 -74.84651566 7.34675026 C-76.80368147 7.34715894 -78.76084422 7.35255451 -80.71800232 7.35806274 C-82.44917297 7.35600075 -82.44917297 7.35600075 -84.21531677 7.35389709 C-85.22468009 7.35481889 -86.23404341 7.35574068 -87.27399349 7.35669041 C-89.53662109 7.23364258 -89.53662109 7.23364258 -90.53662109 6.23364258 C-92.82650891 6.07476166 -95.1210555 5.98226185 -97.41552734 5.91723633 C-98.10218979 5.89645523 -98.78885223 5.87567413 -99.49632263 5.85426331 C-101.69715044 5.78870114 -103.89810084 5.72985243 -106.09912109 5.67114258 C-107.58806624 5.62796365 -109.07699883 5.58434957 -110.56591797 5.5402832 C-114.22268663 5.43301328 -117.87959427 5.33176486 -121.53662109 5.23364258 C-120.87662109 4.90364258 -120.21662109 4.57364258 -119.53662109 4.23364258 C-119.20662109 3.24364258 -118.87662109 2.25364258 -118.53662109 1.23364258 C-117.62275635 1.23944336 -116.7088916 1.24524414 -115.76733398 1.2512207 C-106.82318894 1.28322736 -97.91267056 1.08280927 -88.97412109 0.73364258 C-79.55562469 0.39188653 -70.16049581 0.17307774 -60.7355957 0.25537109 C-54.33761055 0.28734068 -47.95106873 0.15735169 -41.55615234 -0.02026367 C-40.65724777 -0.04478607 -39.7583432 -0.06930847 -38.8321991 -0.09457397 C-34.29671485 -0.2197209 -29.76168944 -0.35350303 -25.22680664 -0.4987793 C-16.74316856 -0.75149513 -8.46717669 -0.73522595 0 0 Z " fill="#E8E8E8" transform="translate(399.53662109375,705.766357421875)"/>
<path d="M0 0 C0.33 0 0.66 0 1 0 C0.85492922 1.33341652 0.7088897 2.66672764 0.5625 4 C0.48128906 4.7425 0.40007812 5.485 0.31640625 6.25 C0.07283073 8.36700205 -0.2106792 10.47943682 -0.51110882 12.58912134 C-1.08251045 17.17704617 -1.14431709 21.70544043 -1.1386652 26.32405853 C-1.14292853 27.69029199 -1.14292853 27.69029199 -1.14727798 29.08412611 C-1.15559597 32.13434037 -1.15689092 35.1845165 -1.15821838 38.23474121 C-1.1627857 40.44428996 -1.16778598 42.65383785 -1.17318195 44.86338472 C-1.18675307 50.93374845 -1.19417846 57.00410657 -1.20060861 63.07448149 C-1.20779455 68.94874711 -1.21961559 74.82300216 -1.23132664 80.69726024 C-1.25511881 92.71165619 -1.27433071 104.72605538 -1.29092598 116.74046326 C-1.30737074 128.63504988 -1.32585506 140.52963046 -1.34705925 152.42420959 C-1.34837686 153.16396886 -1.34969446 153.90372812 -1.351052 154.66590433 C-1.35775415 158.4228167 -1.3644927 162.179729 -1.37124526 165.93664128 C-1.41899958 192.54206488 -1.46218712 219.14749413 -1.50268555 245.75292969 C-1.54203799 271.59863699 -1.58346114 297.44433962 -1.62768555 323.29003906 C-1.62904808 324.08681271 -1.63041061 324.88358636 -1.63181442 325.70450466 C-1.64549988 333.70608333 -1.65922741 341.70766192 -1.67298577 349.70924046 C-1.70101179 366.00916283 -1.72875701 382.30908566 -1.7563324 398.60900879 C-1.7576006 399.35844155 -1.7588688 400.10787432 -1.76017542 400.88001717 C-1.84482149 450.92000387 -1.92290116 500.96000117 -2 551 C-2.33 551 -2.66 551 -3 551 C-3 444.74 -3 338.48 -3 229 C-3.66 229 -4.32 229 -5 229 C-4.84152588 228.49694336 -4.68305176 227.99388672 -4.51977539 227.47558594 C-3.81633378 224.12523464 -3.7648616 220.80029997 -3.68359375 217.390625 C-3.66281265 216.66381531 -3.64203156 215.93700562 -3.62062073 215.18817139 C-3.55544488 212.87554009 -3.4963896 210.56279907 -3.4375 208.25 C-3.39428434 206.67837425 -3.35066908 205.10675944 -3.30664062 203.53515625 C-3.19979644 199.69021547 -3.09843976 195.84516476 -3 192 C-3.66 192 -4.32 192 -5 192 C-5 191.01 -5 190.02 -5 189 C-4.34 189 -3.68 189 -3 189 C-3 184.71 -3 180.42 -3 176 C-3.66 176 -4.32 176 -5 176 C-5 171.71 -5 167.42 -5 163 C-4.34 163 -3.68 163 -3 163 C-3 154.42 -3 145.84 -3 137 C-3.66 137 -4.32 137 -5 137 C-5 136.01 -5 135.02 -5 134 C-4.34 134 -3.68 134 -3 134 C-3 127.07 -3 120.14 -3 113 C-3.66 113 -4.32 113 -5 113 C-5 110.03 -5 107.06 -5 104 C-4.34 104 -3.68 104 -3 104 C-3 99.38 -3 94.76 -3 90 C-3.66 90 -4.32 90 -5 90 C-5 89.01 -5 88.02 -5 87 C-4.34 87 -3.68 87 -3 87 C-3.00666183 86.08704163 -3.01332367 85.17408325 -3.02018738 84.23345947 C-3.08056856 75.58413307 -3.12611078 66.93487855 -3.15543652 58.28538895 C-3.17102054 53.83974384 -3.19212424 49.39427447 -3.22631836 44.94873047 C-3.25917329 40.64986215 -3.27690747 36.35116172 -3.28463173 32.05217743 C-3.29012875 30.42090974 -3.30086155 28.78965012 -3.31719017 27.1584549 C-3.4077856 17.72364995 -2.92211391 9.07924048 0 0 Z " fill="#170000" transform="translate(223,85)"/>
<path d="M0 0 C2.29736348 -0.00322145 4.59472677 -0.00658616 6.89208984 -0.01008606 C11.66211423 -0.01602014 16.43212063 -0.01793133 21.20214844 -0.01733398 C27.32090863 -0.01723133 33.43955546 -0.03101404 39.55828857 -0.04810619 C44.28162167 -0.0591897 49.00492671 -0.06125451 53.72827148 -0.06072426 C55.98657633 -0.06190485 58.24488189 -0.06633108 60.50317383 -0.07405663 C63.64022062 -0.08380566 66.77701198 -0.08100143 69.9140625 -0.07495117 C71.31182419 -0.08338043 71.31182419 -0.08338043 72.73782349 -0.09197998 C73.58956146 -0.08778549 74.44129944 -0.083591 75.31884766 -0.07926941 C76.4280809 -0.08008656 76.4280809 -0.08008656 77.5597229 -0.08092022 C79.5 0.16796875 79.5 0.16796875 82.5 2.16796875 C82.5 1.50796875 82.5 0.84796875 82.5 0.16796875 C83.49 0.66296875 83.49 0.66296875 84.5 1.16796875 C86.20363822 1.39418956 87.91328701 1.57685348 89.625 1.73046875 C90.53507813 1.81425781 91.44515625 1.89804687 92.3828125 1.984375 C93.08148438 2.04496094 93.78015625 2.10554687 94.5 2.16796875 C94.5 2.49796875 94.5 2.82796875 94.5 3.16796875 C84.90988166 3.91882048 75.34239245 4.44109819 65.7265625 4.7265625 C65.02141132 4.74761992 64.31626015 4.76867733 63.58974075 4.79037285 C42.44077354 5.40136495 21.28251906 5.28114925 0.12701416 5.2366333 C-5.37886151 5.22619631 -10.88474218 5.22179317 -16.390625 5.21679688 C-27.09376259 5.20623791 -37.7968788 5.18929125 -48.5 5.16796875 C-48.5 4.50796875 -48.5 3.84796875 -48.5 3.16796875 C-57.08 3.16796875 -65.66 3.16796875 -74.5 3.16796875 C-74.5 2.83796875 -74.5 2.50796875 -74.5 2.16796875 C-66.52614072 1.37903568 -58.69608194 1.11391388 -50.69314575 1.18822956 C-45.42110141 1.21705171 -40.20494388 1.01516466 -34.9453125 0.6784668 C-23.29938351 0.00720869 -11.66197991 0.00388974 0 0 Z " fill="#C4C4C4" transform="translate(358.5,714.83203125)"/>
<path d="M0 0 C0.33 0 0.66 0 1 0 C1 43.89 1 87.78 1 133 C1.66 133 2.32 133 3 133 C3 133.66 3 134.32 3 135 C2.34 135 1.68 135 1 135 C1 154.47 1 173.94 1 194 C1.66 194 2.32 194 3 194 C3 195.32 3 196.64 3 198 C2.34 198 1.68 198 1 198 C1 308.88 1 419.76 1 534 C0.67 534 0.34 534 0 534 C0 357.78 0 181.56 0 0 Z " fill="#180000" transform="translate(519,102)"/>
<path d="M0 0 C2 1 2 1 3 2 C3.0940067 3.96369153 3.11743381 5.93079199 3.11352539 7.89672852 C3.11341209 9.78857628 3.11341209 9.78857628 3.11329651 11.71864319 C3.1081891 13.10539794 3.10297309 14.49215229 3.09765625 15.87890625 C3.09579201 17.28995209 3.09436814 18.70099857 3.09336853 20.11204529 C3.08954379 23.83240535 3.0797139 27.5527266 3.06866455 31.27307129 C3.05844948 35.06680781 3.05387071 38.86055058 3.04882812 42.65429688 C3.03809158 50.10288231 3.0210157 57.55143572 3 65 C2.34 65 1.68 65 1 65 C1 174.56 1 284.12 1 397 C0.67 397 0.34 397 0 397 C0 286.78 0 176.56 0 63 C0.66 63 1.32 63 2 63 C2 61.68 2 60.36 2 59 C1.34 59 0.68 59 0 59 C0 39.53 0 20.06 0 0 Z " fill="#AFA9A1" transform="translate(520,237)"/>
<path d="M0 0 C0.84462949 -0.00085442 1.68925897 -0.00170885 2.55948329 -0.00258917 C5.3939047 -0.00423824 8.22826713 0.00126808 11.06268311 0.00672913 C13.09280394 0.00701115 15.12292488 0.00685297 17.15304565 0.00628662 C22.6691707 0.00599923 28.18527408 0.01188661 33.70139408 0.01886058 C39.46429904 0.02510376 45.22720448 0.02569868 50.9901123 0.02688599 C61.90518501 0.02999645 72.82024773 0.03820602 83.73531604 0.04823548 C96.16080588 0.05940544 108.58629619 0.06490929 121.0117898 0.06993091 C146.57400717 0.08038885 172.13621567 0.0979828 197.69842529 0.12025452 C197.69842529 0.78025452 197.69842529 1.44025452 197.69842529 2.12025452 C188.19881191 2.31065084 178.69878339 2.47242178 169.19842529 2.62025452 C168.4359272 2.63213177 167.67342911 2.64400902 166.88782501 2.65624619 C128.28486581 3.24746245 89.6797833 3.20433731 51.07342529 3.18275452 C50.29239315 3.18233028 49.51136101 3.18190605 48.70666122 3.18146896 C28.37057073 3.17023864 8.03449755 3.14988278 -12.30157471 3.12025452 C-12.30157471 2.46025452 -12.30157471 1.80025452 -12.30157471 1.12025452 C-8.19328327 -0.0236159 -4.23694777 -0.01562452 0 0 Z " fill="#141613" transform="translate(274.30157470703125,55.87974548339844)"/>
<path d="M0 0 C-1 3 -1 3 -2.8203125 3.9140625 C-3.58085937 4.14867187 -4.34140625 4.38328125 -5.125 4.625 C-5.87007812 4.86476563 -6.61515625 5.10453125 -7.3828125 5.3515625 C-13.54893672 6.8792888 -19.57825333 7.14723924 -25.88771057 7.14044189 C-27.19502692 7.14489858 -27.19502692 7.14489858 -28.5287537 7.1494453 C-31.43657808 7.15808722 -34.34436108 7.15963668 -37.25219727 7.16113281 C-39.34199104 7.16576396 -41.43178397 7.17078903 -43.52157593 7.17617798 C-49.18873859 7.18927031 -54.85588943 7.19574007 -60.52306485 7.20018864 C-64.06380385 7.20312284 -67.60453964 7.20722818 -71.14527702 7.21169281 C-82.22443678 7.22535578 -93.30358917 7.23502984 -104.38275677 7.2388947 C-117.17169776 7.24338078 -129.96053216 7.26095924 -142.74944073 7.2898953 C-152.63834336 7.31149389 -162.52721595 7.32159791 -172.41614193 7.32293582 C-178.32175132 7.32398461 -184.22726035 7.32990905 -190.13284492 7.34775543 C-195.68391683 7.36420582 -201.23481255 7.36640635 -206.78590012 7.35761642 C-208.82327559 7.35684458 -210.86066043 7.36120808 -212.89801216 7.37107468 C-215.67864337 7.38375188 -218.45864645 7.37794048 -221.23927307 7.36749268 C-222.04579317 7.37554908 -222.85231327 7.38360548 -223.68327338 7.39190602 C-228.53178005 7.34928167 -231.73979313 6.56578072 -236 4 C-232.35081432 2.78360477 -230.35322421 3.29644652 -226.56596375 3.92607117 C-217.0283195 5.34616639 -207.56679156 5.24662762 -197.94458008 5.18286133 C-195.97171746 5.17733331 -193.99885227 5.17266863 -192.02598572 5.16879272 C-186.71211765 5.15554462 -181.39839235 5.12925099 -176.08459306 5.09965348 C-171.63376326 5.07599373 -167.18291737 5.05862563 -162.73205966 5.04115504 C-152.22927276 4.99974729 -141.72657821 4.9475053 -131.22387695 4.88842773 C-120.41464829 4.8278173 -109.60545753 4.78560807 -98.79611284 4.75240308 C-89.48523495 4.72314806 -80.17445447 4.68244107 -70.86366385 4.63263911 C-65.31572719 4.60307768 -59.76785716 4.57776741 -54.21985817 4.56351662 C-49.00510085 4.54962534 -43.79061077 4.52135929 -38.57598305 4.48231125 C-36.67015558 4.47038656 -34.76428932 4.46340313 -32.85842514 4.46190834 C-21.68734197 4.44967931 -10.39882782 0 0 0 Z " fill="#0E0C0D" transform="translate(492,674)"/>
<path d="M0 0 C74.58 0 149.16 0 226 0 C219.66053744 3.16973128 213.37921424 3.14765501 206.44291687 3.13371277 C205.18883655 3.1371111 205.18883655 3.1371111 203.90942127 3.14057809 C201.1214847 3.1468837 198.33359718 3.14609094 195.5456543 3.14526367 C193.54116758 3.1482573 191.53668143 3.15166031 189.53219604 3.15544128 C184.09615899 3.1642646 178.66013768 3.16661869 173.22409415 3.16725707 C169.82537215 3.16796851 166.42665413 3.17010461 163.02793312 3.17275429 C151.16388317 3.18200211 139.29984445 3.18608987 127.43579102 3.18530273 C116.38806741 3.18470206 105.34039265 3.19525338 94.2926814 3.2110464 C84.79776807 3.22413452 75.30287069 3.2294861 65.80794841 3.22884732 C60.14145077 3.22859272 54.47499655 3.23142344 48.80850792 3.24202538 C43.47741773 3.25172777 38.14641229 3.25177083 32.81531906 3.24450874 C30.86348026 3.24346557 28.91163612 3.24580984 26.95980644 3.2518692 C8.79843761 3.3045797 8.79843761 3.3045797 0 1 C0 0.67 0 0.34 0 0 Z " fill="#2C1C11" transform="translate(257,682)"/>
<path d="M0 0 C0.33 0.99 0.66 1.98 1 3 C1.66 3 2.32 3 3 3 C3.0493651 7.94790177 3.08570269 12.89566083 3.10986328 17.84375 C3.11993317 19.52769466 3.13358988 21.21162179 3.15087891 22.89550781 C3.17508426 25.31319501 3.18647296 27.73065143 3.1953125 30.1484375 C3.20563507 30.9036972 3.21595764 31.65895691 3.22659302 32.43710327 C3.22699318 34.2929398 3.12222716 36.1481928 3 38 C2.34 38.66 1.68 39.32 1 40 C1.66 40 2.32 40 3 40 C3 144.94 3 249.88 3 358 C2.67 358 2.34 358 2 358 C2 254.05 2 150.1 2 43 C1.34 43 0.68 43 0 43 C0 28.81 0 14.62 0 0 Z " fill="#B4B2B3" transform="translate(217,274)"/>
<path d="M0 0 C34.98 0 69.96 0 106 0 C106 1.32 106 2.64 106 4 C71.02 4 36.04 4 0 4 C0 2.68 0 1.36 0 0 Z " fill="#BEBCBF" transform="translate(317,667)"/>
<path d="M0 0 C0.33 0 0.66 0 1 0 C1.17308962 32.03517206 1.33589884 64.07037555 1.48431293 96.10567079 C1.50183508 99.88587724 1.51944508 103.66608328 1.53710938 107.44628906 C1.54062461 108.19887474 1.54413985 108.95146042 1.5477616 109.72685173 C1.60492416 121.92005082 1.66920685 134.11320255 1.736111 146.30635163 C1.80457895 158.81331741 1.86541826 171.32030343 1.91914403 183.82734132 C1.95254951 191.54773872 1.9919381 199.26805836 2.03892837 206.98838523 C2.07429565 212.90369716 2.09906015 218.81902328 2.11981392 224.73440552 C2.13001331 227.16447921 2.14368806 229.5945411 2.16103554 232.02457428 C2.18414781 235.33378486 2.19493378 238.64281027 2.20254517 241.9520874 C2.21712011 243.40538881 2.21712011 243.40538881 2.2319895 244.88804984 C2.2314908 245.77382972 2.2309921 246.6596096 2.23047829 247.57223129 C2.23427549 248.3362286 2.23807269 249.1002259 2.24198496 249.88737464 C1.96449152 252.31000319 1.16621516 253.87389287 0 256 C-0.33 256.99 -0.66 257.98 -1 259 C-1.66 259 -2.32 259 -3 259 C-2.93008852 258.33051321 -2.86017704 257.66102641 -2.78814703 256.97125214 C-2.13927731 250.38546449 -1.83834375 243.87736332 -1.80381775 237.26216125 C-1.79479622 236.2400416 -1.78577469 235.21792194 -1.77647978 234.16482896 C-1.74762656 230.7717708 -1.72524656 227.37870234 -1.70288086 223.9855957 C-1.68342085 221.54065135 -1.66355861 219.09571017 -1.64332581 216.65077209 C-1.6008008 211.40332603 -1.5610517 206.15586689 -1.5238781 200.90838051 C-1.47012767 193.32157104 -1.41129284 185.73480755 -1.35125155 178.14804556 C-1.25395455 165.83643457 -1.16072006 153.52479635 -1.07006836 141.21313477 C-0.9820453 129.25966722 -0.89209157 117.30621674 -0.79956055 105.3527832 C-0.79384928 104.61489826 -0.78813801 103.87701331 -0.78225368 103.11676822 C-0.75358759 99.41469528 -0.72488375 95.71262264 -0.69616115 92.01055014 C-0.45825503 61.34041 -0.22702196 30.67022275 0 0 Z " fill="#8D6F5A" transform="translate(518,388)"/>
<path d="M0 0 C9.54716266 9.28196369 14.72052484 21.01528537 16.25 34.1875 C15.8203125 37.609375 15.8203125 37.609375 15.25 40.1875 C14.92 40.1875 14.59 40.1875 14.25 40.1875 C13.92 44.8075 13.59 49.4275 13.25 54.1875 C12.92 54.1875 12.59 54.1875 12.25 54.1875 C12.16548584 53.31649658 12.08097168 52.44549316 11.99389648 51.5480957 C11.66001599 48.24799203 11.30087513 44.9525327 10.92553711 41.65698242 C10.76953033 40.24332097 10.62301966 38.82857197 10.48706055 37.4128418 C9.28282665 24.98673593 6.29297104 14.44941297 -3.3125 5.6875 C-4.7828457 4.50973574 -6.26117658 3.34181797 -7.75 2.1875 C-8.7506898 1.25073633 -9.75077721 0.31332833 -10.75 -0.625 C-17.09706177 -5.25306587 -24.06964986 -6.2029484 -31.75 -6.8125 C-31.75 -7.1425 -31.75 -7.4725 -31.75 -7.8125 C-20.36115291 -11.89529424 -9.60239098 -6.3288486 0 0 Z " fill="#251E1A" transform="translate(503.75,63.8125)"/>
<path d="M0 0 C0.33 0 0.66 0 1 0 C1 104.61 1 209.22 1 317 C0.01 317 -0.98 317 -2 317 C-1.93019456 315.82695722 -1.86038912 314.65391443 -1.78846836 313.4453249 C-0.95620855 298.47572832 -0.8287608 283.5274277 -0.79939139 268.53789699 C-0.79124807 264.92063391 -0.77760036 261.30339057 -0.76467896 257.68614197 C-0.74310976 251.44465963 -0.72489581 245.2031751 -0.70907402 238.96167564 C-0.68619439 229.93792734 -0.65807855 220.91420107 -0.62875474 211.89047167 C-0.58129803 197.24396684 -0.53797574 182.5974529 -0.49731445 167.95092773 C-0.4578471 153.7377044 -0.41639467 139.5244891 -0.37231445 125.3112793 C-0.36822804 123.99332905 -0.36822804 123.99332905 -0.36405908 122.64875355 C-0.35037776 118.24015168 -0.33665785 113.83154993 -0.32291877 109.42294824 C-0.2092991 72.94864894 -0.10241488 36.4743324 0 0 Z " fill="#ACA894" transform="translate(222,324)"/>
<path d="M0 0 C1.6735639 -0.00322915 3.34712754 -0.00659433 5.02069092 -0.01008606 C8.52372893 -0.01604181 12.02674244 -0.0179302 15.52978516 -0.01733398 C19.04709106 -0.01725358 22.56426433 -0.02406214 26.08154297 -0.0378418 C49.00668393 -0.12644081 71.74497481 0.43470348 94.609375 2.16796875 C94.609375 2.49796875 94.609375 2.82796875 94.609375 3.16796875 C53.029375 3.16796875 11.449375 3.16796875 -31.390625 3.16796875 C-31.060625 2.50796875 -30.730625 1.84796875 -30.390625 1.16796875 C-20.49389979 -0.56567567 -10.03219829 0.00464325 0 0 Z " fill="#B5B5B5" transform="translate(341.390625,709.83203125)"/>
<path d="M0 0 C0.33 0 0.66 0 1 0 C0.85492922 1.33341652 0.7088897 2.66672764 0.5625 4 C0.48128906 4.7425 0.40007812 5.485 0.31640625 6.25 C0.07236497 8.37105012 -0.21060876 10.4876446 -0.50988674 12.60160828 C-1.07270406 17.1185189 -1.15274917 21.57686977 -1.15821838 26.12426758 C-1.16315636 27.00906673 -1.16809434 27.89386589 -1.17318195 28.80547714 C-1.18846386 31.75182674 -1.19689217 34.6981547 -1.20532227 37.64453125 C-1.21490812 39.76391284 -1.22491861 41.88329255 -1.23532104 44.00267029 C-1.26229955 49.74373691 -1.28334723 55.48481169 -1.30332303 61.22590637 C-1.32522619 67.23037189 -1.35259366 73.23481245 -1.37937927 79.23925781 C-1.42924767 90.60396163 -1.47420818 101.96867933 -1.51740164 113.33341026 C-1.56682408 126.27411578 -1.62172362 139.21479625 -1.67708123 152.15547752 C-1.79081141 178.77029497 -1.89766991 205.38513645 -2 232 C-2.33 231.01 -2.66 230.02 -3 229 C-3.66 229 -4.32 229 -5 229 C-4.84152588 228.49694336 -4.68305176 227.99388672 -4.51977539 227.47558594 C-3.81633378 224.12523464 -3.7648616 220.80029997 -3.68359375 217.390625 C-3.66281265 216.66381531 -3.64203156 215.93700562 -3.62062073 215.18817139 C-3.55544488 212.87554009 -3.4963896 210.56279907 -3.4375 208.25 C-3.39428434 206.67837425 -3.35066908 205.10675944 -3.30664062 203.53515625 C-3.19979644 199.69021547 -3.09843976 195.84516476 -3 192 C-3.66 192 -4.32 192 -5 192 C-5 191.01 -5 190.02 -5 189 C-4.34 189 -3.68 189 -3 189 C-3 184.71 -3 180.42 -3 176 C-3.66 176 -4.32 176 -5 176 C-5 171.71 -5 167.42 -5 163 C-4.34 163 -3.68 163 -3 163 C-3 154.42 -3 145.84 -3 137 C-3.66 137 -4.32 137 -5 137 C-5 136.01 -5 135.02 -5 134 C-4.34 134 -3.68 134 -3 134 C-3 127.07 -3 120.14 -3 113 C-3.66 113 -4.32 113 -5 113 C-5 110.03 -5 107.06 -5 104 C-4.34 104 -3.68 104 -3 104 C-3 99.38 -3 94.76 -3 90 C-3.66 90 -4.32 90 -5 90 C-5 89.01 -5 88.02 -5 87 C-4.34 87 -3.68 87 -3 87 C-3.00666183 86.08704163 -3.01332367 85.17408325 -3.02018738 84.23345947 C-3.08056856 75.58413307 -3.12611078 66.93487855 -3.15543652 58.28538895 C-3.17102054 53.83974384 -3.19212424 49.39427447 -3.22631836 44.94873047 C-3.25917329 40.64986215 -3.27690747 36.35116172 -3.28463173 32.05217743 C-3.29012875 30.42090974 -3.30086155 28.78965012 -3.31719017 27.1584549 C-3.4077856 17.72364995 -2.92211391 9.07924048 0 0 Z " fill="#250F0A" transform="translate(223,85)"/>
<path d="M0 0 C4.17477684 0.01141178 8.3492987 0.00460008 12.52406693 -0.0069046 C34.87576207 -0.05860971 57.08076485 0.71311103 79.37890625 2.26074219 C79.37890625 2.92074219 79.37890625 3.58074219 79.37890625 4.26074219 C81.02890625 4.26074219 82.67890625 4.26074219 84.37890625 4.26074219 C84.37890625 4.59074219 84.37890625 4.92074219 84.37890625 5.26074219 C80.4204674 5.11769379 76.46218153 4.97074188 72.50390625 4.82324219 C70.87001953 4.76426758 70.87001953 4.76426758 69.203125 4.70410156 C64.25368531 4.51813996 59.30827878 4.32787292 54.36512756 4.01576233 C43.52212484 3.33465531 32.72958893 3.11240309 21.8671875 3.12792969 C20.15764858 3.12725294 18.44810976 3.12627987 16.73857117 3.12503052 C13.18988104 3.12357212 9.64121641 3.12564812 6.0925293 3.13037109 C1.58807259 3.13608042 -2.91632466 3.1327698 -7.42077923 3.12679863 C-10.93934055 3.1231535 -14.45788819 3.12434937 -17.97644997 3.12692642 C-19.63591329 3.12758412 -21.29537793 3.12680876 -22.95483971 3.12444687 C-32.15894233 3.11420985 -41.2718978 3.32641066 -50.44906616 4.05848694 C-54.85440643 4.33938084 -59.1633831 4.15955118 -63.55859375 3.82324219 C-64.34943359 3.77103516 -65.14027344 3.71882812 -65.95507812 3.66503906 C-67.84435823 3.53908706 -69.73284658 3.40133333 -71.62109375 3.26074219 C-71.62109375 2.93074219 -71.62109375 2.60074219 -71.62109375 2.26074219 C-47.7314723 0.71026516 -23.93924125 -0.06615322 0 0 Z " fill="#D5D5D5" transform="translate(362.62109375,707.7392578125)"/>
<path d="M0 0 C-6.35225571 1.61498026 -12.44172011 2.36672015 -18.984375 2.75390625 C-21.90837595 2.9268615 -21.90837595 2.9268615 -24.36256504 3.50744438 C-27.04653682 4.00869101 -29.48655942 4.12583009 -32.21458435 4.12698364 C-33.24458054 4.12980347 -34.27457672 4.13262329 -35.33578491 4.13552856 C-36.45530548 4.13350433 -37.57482605 4.1314801 -38.72827148 4.12939453 C-40.50979866 4.13202301 -40.50979866 4.13202301 -42.32731628 4.13470459 C-45.57993639 4.13834908 -48.83251573 4.13749715 -52.08513522 4.1343255 C-55.50321456 4.13178539 -58.92129127 4.13414452 -62.33937073 4.13571167 C-68.08847539 4.13753076 -73.83756721 4.13513618 -79.58666992 4.13037109 C-86.20016375 4.12495227 -92.81362662 4.12667477 -99.42711967 4.1321975 C-105.12675788 4.13676401 -110.82638686 4.1373613 -116.52602631 4.13475883 C-119.92012637 4.13321239 -123.31421199 4.13295641 -126.70831108 4.13629532 C-130.50795391 4.13885988 -134.30753914 4.13492708 -138.10717773 4.12939453 C-139.75913147 4.13243088 -139.75913147 4.13243088 -141.44445801 4.13552856 C-149.33035722 4.11445846 -157.14152508 3.6451285 -165 3 C-165 2.67 -165 2.34 -165 2 C-163.69741241 1.98969254 -162.39482483 1.97938507 -161.05276489 1.96876526 C-148.61346261 1.86985232 -136.17419749 1.76703751 -123.73495674 1.66066074 C-117.34398864 1.60612548 -110.95301583 1.5528387 -104.56201172 1.50268555 C-55.70099881 1.42959781 -55.70099881 1.42959781 -6.9140625 -0.9140625 C-4.32643158 -0.99037333 -2.43968172 -0.80521515 0 0 Z " fill="#E6E6E6" transform="translate(460,718)"/>
<path d="M0 0 C1.38294718 0.01329757 2.76582404 0.03715018 4.1484375 0.0703125 C4.85484375 0.07933594 5.56125 0.08835937 6.2890625 0.09765625 C8.03399848 0.12123647 9.77876045 0.15710789 11.5234375 0.1953125 C12.1834375 1.5153125 12.8434375 2.8353125 13.5234375 4.1953125 C14.1834375 4.1953125 14.8434375 4.1953125 15.5234375 4.1953125 C14.37170395 6.66331297 13.47560185 8.24314815 11.5234375 10.1953125 C8.77858157 10.34038945 6.13863207 10.38183673 3.3984375 10.3203125 C2.64433594 10.31128906 1.89023437 10.30226563 1.11328125 10.29296875 C-0.75013504 10.2693812 -2.61338843 10.23350969 -4.4765625 10.1953125 C-5.85781268 7.43281214 -5.66735556 5.24800151 -5.4765625 2.1953125 C-3.4765625 0.1953125 -3.4765625 0.1953125 0 0 Z " fill="#6E6C6F" transform="translate(470.4765625,75.8046875)"/>
<path d="M0 0 C0.33 0 0.66 0 1 0 C2.3030873 3.9092619 2.52612168 5.87353884 0.75390625 9.66796875 C-5.87218223 20.36710939 -13.72212935 28.37879809 -26.328125 31.59375 C-28.25 31.875 -28.25 31.875 -31 32 C-30.01 31.34 -29.02 30.68 -28 30 C-28.33 29.34 -28.66 28.68 -29 28 C-28.0925 27.7525 -27.185 27.505 -26.25 27.25 C-22.77188951 25.9122652 -21.54464891 24.63552923 -19 22 C-17.52263445 20.74371909 -16.02218302 19.51408626 -14.5 18.3125 C-13.7471875 17.71050781 -12.994375 17.10851562 -12.21875 16.48828125 C-10 15 -10 15 -7.78125 14.453125 C-7.1934375 14.30359375 -6.605625 14.1540625 -6 14 C-4.91114536 11.32186171 -4.91114536 11.32186171 -4 8 C-2.74564556 5.29195573 -1.38266783 2.64452002 0 0 Z " fill="#2D2120" transform="translate(514,650)"/>
<path d="M0 0 C0.33 0.99 0.66 1.98 1 3 C1.66 3 2.32 3 3 3 C3.0493651 7.94790177 3.08570269 12.89566083 3.10986328 17.84375 C3.11993317 19.52769466 3.13358988 21.21162179 3.15087891 22.89550781 C3.17508426 25.31319501 3.18647296 27.73065143 3.1953125 30.1484375 C3.20563507 30.9036972 3.21595764 31.65895691 3.22659302 32.43710327 C3.22699318 34.2929398 3.12222716 36.1481928 3 38 C2.34 38.66 1.68 39.32 1 40 C1.66 40 2.32 40 3 40 C3 55.18 3 70.36 3 86 C2.67 86 2.34 86 2 86 C2 71.81 2 57.62 2 43 C1.34 43 0.68 43 0 43 C0 28.81 0 14.62 0 0 Z " fill="#A79A8B" transform="translate(217,274)"/>
<path d="M0 0 C0.33 0 0.66 0 1 0 C1.17702208 9.83990607 1.34297381 19.67993049 1.49477577 29.52025986 C1.56561101 34.0894659 1.64026517 38.65854313 1.72363281 43.22753906 C1.80393954 47.6364684 1.87423311 52.04545391 1.93757248 56.45465851 C1.9635056 58.13722876 1.99305276 59.81974731 2.02626419 61.50218964 C2.07214933 63.85787046 2.10520673 66.21340728 2.13525391 68.56933594 C2.1517952 69.26561096 2.16833649 69.96188599 2.18537903 70.67926025 C2.21764846 74.35332857 1.92286694 76.85662836 0 80 C-0.33 80.99 -0.66 81.98 -1 83 C-1.66 83 -2.32 83 -3 83 C-2.93107544 82.36283051 -2.86215088 81.72566101 -2.7911377 81.06918335 C-2.03409886 73.5309717 -1.80492008 66.04911009 -1.71875 58.4765625 C-1.70034058 57.21339203 -1.68193115 55.95022156 -1.66296387 54.64877319 C-1.60467731 50.6408917 -1.55152504 46.63297239 -1.5 42.625 C-1.4320076 37.34627405 -1.35806397 32.06766952 -1.28125 26.7890625 C-1.26767456 25.60011383 -1.25409912 24.41116516 -1.2401123 23.18618774 C-1.12675467 15.42398927 -0.68463993 7.73260991 0 0 Z " fill="#7B5E49" transform="translate(518,564)"/>
<path d="M0 0 C4.14801595 4.03279329 7.99210076 7.78044041 8.625 13.6875 C8.439375 14.925 8.439375 14.925 8.25 16.1875 C5.86450129 13.94441912 4.06715909 11.54901133 2.1875 8.875 C-4.38603936 0.38590096 -14.96372952 -4.46965045 -25.4453125 -6.27734375 C-27.54076015 -6.517105 -29.64540016 -6.67449345 -31.75 -6.8125 C-31.75 -7.1425 -31.75 -7.4725 -31.75 -7.8125 C-20.36115291 -11.89529424 -9.60239098 -6.3288486 0 0 Z " fill="#433730" transform="translate(503.75,63.8125)"/>
<path d="M0 0 C3.3490244 1.40935083 4.99683329 3.00820159 7.1875 5.875 C11.75931325 11.30402823 17.21299918 13.42198401 24 15 C24 15.66 24 16.32 24 17 C24.928125 17.12375 25.85625 17.2475 26.8125 17.375 C30 18 30 18 33 20 C30.36 19.67 27.72 19.34 25 19 C26.32 19.99 27.64 20.98 29 22 C18.73714476 21.61272244 10.47456454 16.4085869 3.52734375 9.03515625 C1.31365256 6.0854552 0.60264521 3.61587127 0 0 Z " fill="#312925" transform="translate(228,660)"/>
<path d="M0 0 C0.69738281 0.00451172 1.39476562 0.00902344 2.11328125 0.01367188 C3.82555803 0.0253998 5.53779033 0.04333347 7.25 0.0625 C6.59 1.0525 5.93 2.0425 5.25 3.0625 C2.19981101 3.34853461 -0.64638302 3.44042773 -3.69775391 3.40307617 C-5.08807579 3.40373329 -5.08807579 3.40373329 -6.50648499 3.40440369 C-9.58005606 3.40230825 -12.65308634 3.37894162 -15.7265625 3.35546875 C-17.85362449 3.34987548 -19.98069034 3.34560412 -22.10775757 3.34260559 C-27.71385313 3.33113565 -33.31971655 3.30164995 -38.92572021 3.26849365 C-44.64315653 3.23783906 -50.36063025 3.22411012 -56.078125 3.20898438 C-67.30218548 3.17678234 -78.52607346 3.12556005 -89.75 3.0625 C-89.75 2.7325 -89.75 2.4025 -89.75 2.0625 C-88.7816925 2.05219254 -87.81338501 2.04188507 -86.81573486 2.03126526 C-77.69290914 1.93353331 -68.57015166 1.83079936 -59.44743729 1.72316074 C-54.75729961 1.66798294 -50.06715565 1.61457114 -45.37695312 1.56518555 C-40.851149 1.51746618 -36.32541992 1.46512061 -31.79970551 1.40955925 C-30.07255674 1.38917001 -28.34538741 1.3704513 -26.61820221 1.35342598 C-24.20014518 1.32930596 -21.78222921 1.29926187 -19.36425781 1.26782227 C-18.64928131 1.2620668 -17.93430481 1.25631134 -17.19766235 1.25038147 C-11.35595031 1.16397587 -5.87901124 -0.07223738 0 0 Z " fill="#C2C2C2" transform="translate(430.75,714.9375)"/>
<path d="M0 0 C1.48717691 3.86665996 0.34016247 6.20287302 -1 10 C-1.83193056 14.82979695 -2.14508346 19.50749867 -2.20532227 24.40405273 C-2.21522186 25.107332 -2.22512146 25.81061127 -2.23532104 26.53520203 C-2.26663411 28.83463297 -2.29157252 31.1340845 -2.31640625 33.43359375 C-2.33700194 35.03785201 -2.35799906 36.64210516 -2.37937927 38.24635315 C-2.4343301 42.44989868 -2.48385733 46.65349097 -2.53222656 50.8571167 C-2.58263982 55.1541353 -2.63822196 59.45108676 -2.69335938 63.74804688 C-2.80061037 72.16530766 -2.90212744 80.58262496 -3 89 C-3.33 89 -3.66 89 -4 89 C-4.20201249 80.29745455 -4.38548712 71.59475777 -4.54658794 62.89135838 C-4.62198345 58.84814172 -4.70328723 54.80524026 -4.79907227 50.76245117 C-4.89162274 46.84631627 -4.96737644 42.93015589 -5.03244972 39.0134716 C-5.05979521 37.53417155 -5.09275974 36.05496212 -5.13199425 34.57592964 C-5.80524439 8.70786658 -5.80524439 8.70786658 0 0 Z " fill="#B4A99E" transform="translate(226,82)"/>
<path d="M0 0 C0.33 0 0.66 0 1 0 C1 6.93 1 13.86 1 21 C0.34 21 -0.32 21 -1 21 C-1 21.99 -1 22.98 -1 24 C-0.34 24 0.32 24 1 24 C1 32.58 1 41.16 1 50 C0.34 50 -0.32 50 -1 50 C-1 54.29 -1 58.58 -1 63 C-1.33 63 -1.66 63 -2 63 C-2 48.81 -2 34.62 -2 20 C-1.34 20 -0.68 20 0 20 C0 13.4 0 6.8 0 0 Z " fill="#B3A095" transform="translate(219,198)"/>
<path d="M0 0 C0 3.3 0 6.6 0 10 C-5.28 10 -10.56 10 -16 10 C-16 8.68 -16 7.36 -16 6 C-14.68 6 -13.36 6 -12 6 C-12 5.34 -12 4.68 -12 4 C-11.443125 3.896875 -10.88625 3.79375 -10.3125 3.6875 C-7.86382567 3.06678342 -7.86382567 3.06678342 -5.4375 1.4375 C-3 0 -3 0 0 0 Z " fill="#B5B3B6" transform="translate(443,76)"/>
<path d="M0 0 C6.36423859 5.21867564 7.33082171 16.32471074 8.1171875 24.07421875 C8 26 8 26 6 28 C5.34 28 4.68 28 4 28 C3.80664062 26.77023438 3.61328125 25.54046875 3.4140625 24.2734375 C3.15130426 22.64058272 2.88826875 21.00777254 2.625 19.375 C2.49867188 18.56675781 2.37234375 17.75851563 2.2421875 16.92578125 C1.51100407 12.42900318 0.47589212 8.32225551 -1 4 C-0.625 1.625 -0.625 1.625 0 0 Z " fill="#3B312C" transform="translate(512,76)"/>
<path d="M0 0 C0.74185547 0.00960754 1.48371094 0.01921509 2.24804688 0.02911377 C4.6937838 0.06202633 7.13933776 0.10238795 9.58496094 0.14282227 C11.28317627 0.16713096 12.98139832 0.19097414 14.67962646 0.21437073 C19.14473134 0.27713712 23.60971688 0.3462248 28.07470703 0.41662598 C32.63275732 0.48737671 37.19089207 0.55215333 41.74902344 0.61743164 C50.68922043 0.746348 59.62930276 0.88194206 68.56933594 1.02172852 C68.56933594 1.35172852 68.56933594 1.68172852 68.56933594 2.02172852 C42.16933594 2.35172852 15.76933594 2.68172852 -11.43066406 3.02172852 C-11.43066406 2.36172852 -11.43066406 1.70172852 -11.43066406 1.02172852 C-7.64790777 -0.20662608 -3.92688826 -0.07301361 0 0 Z " fill="#232722" transform="translate(273.4306640625,55.978271484375)"/>
<path d="M0 0 C-0.99 1.485 -0.99 1.485 -2 3 C-3.32 3 -4.64 3 -6 3 C-6.33 3.66 -6.66 4.32 -7 5 C-8.78515625 5.2734375 -8.78515625 5.2734375 -11.0625 5.375 C-15.46983014 5.7405202 -18.50116975 7.00687084 -22.2734375 9.2578125 C-24 10 -24 10 -27 9 C-26 6 -26 6 -23.55859375 4.68359375 C-7.27325301 -1.81831325 -7.27325301 -1.81831325 0 0 Z " fill="#5D453F" transform="translate(268,54)"/>
<path d="M0 0 C0.99 0.33 1.98 0.66 3 1 C3 1.66 3 2.32 3 3 C2.34 3 1.68 3 1 3 C1 22.47 1 41.94 1 62 C1.66 62 2.32 62 3 62 C3 63.32 3 64.64 3 66 C2.34 66 1.68 66 1 66 C0.67 67.32 0.34 68.64 0 70 C0 46.9 0 23.8 0 0 Z " fill="#200804" transform="translate(519,234)"/>
<path d="M0 0 C3.10540925 5.21633699 2.55135332 11.09186336 2.75 17 C2.80542969 18.18851563 2.86085938 19.37703125 2.91796875 20.6015625 C2.96050781 21.74367188 3.00304687 22.88578125 3.046875 24.0625 C3.08651367 25.10535156 3.12615234 26.14820313 3.16699219 27.22265625 C2.99459359 30.08991721 2.42699377 31.55372497 1 34 C0.67 34.99 0.34 35.98 0 37 C-0.66 37 -1.32 37 -2 37 C-1.93433838 36.36473389 -1.86867676 35.72946777 -1.80102539 35.07495117 C-1.05969201 27.49211137 -0.69824796 19.92548559 -0.4375 12.3125 C-0.39431641 11.12205078 -0.35113281 9.93160156 -0.30664062 8.70507812 C-0.20176321 5.80346966 -0.09959804 2.90179365 0 0 Z " fill="#71534A" transform="translate(517,610)"/>
<path d="M0 0 C0 0.66 0 1.32 0 2 C0.66 2 1.32 2 2 2 C2.22417836 4.7648665 2.32233508 6.46277487 0.875 8.875 C-1.92151052 10.55290631 -3.93690532 9.74875648 -7 9 C-7.33 6.69 -7.66 4.38 -8 2 C-2.25 0 -2.25 0 0 0 Z " fill="#0C0A20" transform="translate(401,78)"/>
<path d="M0 0 C3.96 0 7.92 0 12 0 C12 1.98 12 3.96 12 6 C8.04 6 4.08 6 0 6 C0 4.02 0 2.04 0 0 Z " fill="#E4E2E5" transform="translate(467,78)"/>
<path d="M0 0 C0.33 0 0.66 0 1 0 C1.16435547 1.46373047 1.16435547 1.46373047 1.33203125 2.95703125 C1.49058594 4.22933594 1.64914063 5.50164063 1.8125 6.8125 C1.96332031 8.07707031 2.11414063 9.34164062 2.26953125 10.64453125 C3.01561706 14.07173827 3.48262147 14.81097519 6 17 C6.1875 20.1875 6.1875 20.1875 6 23 C5.34 23.33 4.68 23.66 4 24 C3.67 22.68 3.34 21.36 3 20 C2.34 20 1.68 20 1 20 C-3.29281768 7.07044199 -3.29281768 7.07044199 -1 1.625 C-0.67 1.08875 -0.34 0.5525 0 0 Z " fill="#362C23" transform="translate(223,635)"/>
<path d="M0 0 C0 3.70112466 -0.75187764 4.10015899 -3.25 6.6875 C-6.77482984 10.54121863 -8.8768787 14.24420828 -11 19 C-11.66 19 -12.32 19 -13 19 C-13.66 19.66 -14.32 20.32 -15 21 C-14.63698525 13.92121234 -10.37893443 8.72877773 -5.875 3.5625 C-4.00125033 2.00104194 -2.23711407 0.95876317 0 0 Z " fill="#493330" transform="translate(239,64)"/>
<path d="M0 0 C12.87 0 25.74 0 39 0 C39 0.66 39 1.32 39 2 C40.65 2 42.3 2 44 2 C44 2.33 44 2.66 44 3 C29.32442865 2.46966039 14.65856243 1.89011942 0 1 C0 0.67 0 0.34 0 0 Z " fill="#CBCBCB" transform="translate(403,710)"/>
<path d="M0 0 C0.33 0 0.66 0 1 0 C1.36517527 6.57315478 0.13619737 11.79485526 -2 18 C-2.66 16.68 -3.32 15.36 -4 14 C-5.98 18.29 -7.96 22.58 -10 27 C-10.66 27 -11.32 27 -12 27 C-11.01642386 24.52788675 -10.02531146 22.06060908 -9 19.60546875 C-6.86722502 14.4484855 -5.21070979 9.44819408 -4 4 C-3.67 4 -3.34 4 -3 4 C-3 5.98 -3 7.96 -3 10 C-2.34 10 -1.68 10 -1 10 C-0.67 6.7 -0.34 3.4 0 0 Z " fill="#211E1C" transform="translate(518,637)"/>
<path d="M0 0 C0.33 0 0.66 0 1 0 C1.9150371 2.74511131 2.30020211 4.16260583 2 7 C-0.00133496 10.90836617 -2.42498472 14.44891908 -5 18 C-6.32 17.67 -7.64 17.34 -9 17 C-7.68990468 14.35295091 -6.37705236 11.7073344 -5.0625 9.0625 C-4.50272461 7.93038086 -4.50272461 7.93038086 -3.93164062 6.77539062 C-3.39506836 5.69741211 -3.39506836 5.69741211 -2.84765625 4.59765625 C-2.51773682 3.93258057 -2.18781738 3.26750488 -1.84790039 2.58227539 C-1 1 -1 1 0 0 Z " fill="#493631" transform="translate(514,650)"/>
<path d="M0 0 C1.69921875 1.55078125 1.69921875 1.55078125 3 3 C3.66 3.33 4.32 3.66 5 4 C5 4.66 5 5.32 5 6 C3.625 5.54166667 2.25 5.08333333 0.875 4.625 C0.04742187 4.35171875 -0.78015625 4.0784375 -1.6328125 3.796875 C-3.4338055 3.19060013 -5.22069245 2.54224033 -7 1.875 C-10.96221711 0.71935334 -14.89758408 0.34642623 -19 0 C-19 -0.33 -19 -0.66 -19 -1 C-12.06388953 -3.48653017 -6.80523728 -2.86941346 0 0 Z " fill="#817063" transform="translate(491,57)"/>
<path d="M0 0 C2.36190579 2.36190579 2.32138258 3.09371185 2.59765625 6.32421875 C2.71657227 7.62069336 2.71657227 7.62069336 2.83789062 8.94335938 C2.91201172 9.84892578 2.98613281 10.75449219 3.0625 11.6875 C3.2186877 13.46236018 3.37621583 15.23710296 3.53515625 17.01171875 C3.64754639 18.28281494 3.64754639 18.28281494 3.76220703 19.57958984 C4.0726354 22.73932991 4.51502402 25.86267754 5 29 C4.34 29.33 3.68 29.66 3 30 C0.28233391 19.85404658 -0.13260703 10.49068969 0 0 Z " fill="#1A1713" transform="translate(223,621)"/>
<path d="M0 0 C3.31460676 1.40510504 5.0351443 3.00092347 7.25 5.8125 C10.67375968 9.88981901 14.34108805 12.48297744 19 15 C18.67 15.66 18.34 16.32 18 17 C14.56072421 15.7580393 11.74792181 14.44259716 9 12 C9 11.34 9 10.68 9 10 C8.071875 9.835 7.14375 9.67 6.1875 9.5 C2.60843752 7.8157353 2.41028278 7.3893481 1.125 3.875 C0.72720573 2.59017024 0.34467435 1.30008745 0 0 Z " fill="#483D33" transform="translate(228,660)"/>
<path d="M0 0 C0.33 0.99 0.66 1.98 1 3 C1.66 3 2.32 3 3 3 C3 7.62 3 12.24 3 17 C2.34 17 1.68 17 1 17 C1 19.97 1 22.94 1 26 C0.67 26 0.34 26 0 26 C0 17.42 0 8.84 0 0 Z " fill="#AF9E92" transform="translate(217,172)"/>
<path d="M0 0 C0.99 0.99 1.98 1.98 3 3 C3.66 2.01 4.32 1.02 5 0 C5.36351562 0.64066406 5.72703125 1.28132812 6.1015625 1.94140625 C9.3170985 7.47377716 12.68552979 12.27462786 17 17 C13.33213607 15.49650623 11.31089607 13.36271208 8.75 10.375 C8.04359375 9.55773437 7.3371875 8.74046875 6.609375 7.8984375 C6.07828125 7.27195312 5.5471875 6.64546875 5 6 C5 6.66 5 7.32 5 8 C4.67 8.66 4.34 9.32 4 10 C0 3.375 0 3.375 0 0 Z " fill="#261F19" transform="translate(225,655)"/>
<path d="M0 0 C0.99 0 1.98 0 3 0 C3 8.58 3 17.16 3 26 C2.01 26 1.02 26 0 26 C0 23.03 0 20.06 0 17 C0.66 17 1.32 17 2 17 C2 12.38 2 7.76 2 3 C1.34 3 0.68 3 0 3 C0 2.01 0 1.02 0 0 Z " fill="#3B2318" transform="translate(218,172)"/>
<path d="M0 0 C0.33 0 0.66 0 1 0 C1 13.86 1 27.72 1 42 C0.67 42 0.34 42 0 42 C0 36.06 0 30.12 0 24 C-0.66 24 -1.32 24 -2 24 C-2 23.01 -2 22.02 -2 21 C-1.34 21 -0.68 21 0 21 C0 14.07 0 7.14 0 0 Z " fill="#240805" transform="translate(220,198)"/>
<path d="M0 0 C0.33 0 0.66 0 1 0 C1 6.93 1 13.86 1 21 C0.01 21 -0.98 21 -2 21 C-2 16.71 -2 12.42 -2 8 C-1.34 8 -0.68 8 0 8 C0 5.36 0 2.72 0 0 Z " fill="#4B2E1F" transform="translate(220,240)"/>
<path d="M0 0 C0.99 0 1.98 0 3 0 C4.4783226 2.95664519 4.06032783 5.74229737 4 9 C2.35 9.33 0.7 9.66 -1 10 C-0.67 9.01 -0.34 8.02 0 7 C-0.66 6.67 -1.32 6.34 -2 6 C-1.125 1.125 -1.125 1.125 0 0 Z " fill="#D6D4D7" transform="translate(261,76)"/>
<path d="M0 0 C-1.05875074 3.40312738 -2.00902154 6.01353231 -4 9 C-4.66 9 -5.32 9 -6 9 C-6 7.68 -6 6.36 -6 5 C-7.32 5 -8.64 5 -10 5 C-10 4.34 -10 3.68 -10 3 C-6.27034861 0.96564469 -4.33094958 0 0 0 Z " fill="#D3D1D4" transform="translate(297,77)"/>
<path d="M0 0 C1.14855469 0.13277344 2.29710937 0.26554688 3.48046875 0.40234375 C12.64617511 1.44889213 21.79387597 2.381921 31 3 C31 3.33 31 3.66 31 4 C26.95847085 4.08746928 22.91718695 4.14054982 18.875 4.1875 C17.73289062 4.21263672 16.59078125 4.23777344 15.4140625 4.26367188 C4.9487553 4.35493909 4.9487553 4.35493909 0 1 C0 0.67 0 0.34 0 0 Z " fill="#131010" transform="translate(256,677)"/>
<path d="M0 0 C0.99 0.495 0.99 0.495 2 1 C3.64563272 6.64904331 4.55494773 12.24669342 3 18 C2.01 18 1.02 18 0 18 C0 12.06 0 6.12 0 0 Z " fill="#2C221F" transform="translate(516,86)"/>
<path d="M0 0 C5.15171623 -0.09038099 9.91913204 0.15318867 15 1 C15 1.33 15 1.66 15 2 C13.12612523 2.3396019 11.25083303 2.67138691 9.375 3 C8.33085937 3.185625 7.28671875 3.37125 6.2109375 3.5625 C3.09425135 3.98715797 0.14069188 4.07545206 -3 4 C-2.34 3.67 -1.68 3.34 -1 3 C-0.67 2.01 -0.34 1.02 0 0 Z " fill="#E9E9E9" transform="translate(281,707)"/>
<path d="M0 0 C-1 3 -1 3 -2.71484375 3.9140625 C-8.46678453 5.75387484 -13.97497406 6.63522807 -20 7 C-20 6.34 -20 5.68 -20 5 C-18.86820312 4.72285156 -17.73640625 4.44570313 -16.5703125 4.16015625 C-15.08851098 3.79439512 -13.60674182 3.42850289 -12.125 3.0625 C-11.37863281 2.88009766 -10.63226563 2.69769531 -9.86328125 2.50976562 C-6.61466819 1.70492906 -3.27193292 0 0 0 Z " fill="#1B1717" transform="translate(492,674)"/>
<path d="M0 0 C0.66 0 1.32 0 2 0 C3.125 7.75 3.125 7.75 2 10 C1.34 10 0.68 10 0 10 C0 9.34 0 8.68 0 8 C-1.32 8 -2.64 8 -4 8 C-2.87548273 5.0280615 -1.77706209 2.66559313 0 0 Z " fill="#B7B5B8" transform="translate(274,76)"/>
<path d="M0 0 C-1 2 -1 2 -2.6796875 2.66796875 C-9.0003709 4.16378884 -14.59162761 3.8863917 -21 3 C-21 2.67 -21 2.34 -21 2 C-18.43795456 1.66280953 -15.87545682 1.33012847 -13.3125 1 C-12.59126953 0.90460937 -11.87003906 0.80921875 -11.12695312 0.7109375 C-7.39007129 0.23316265 -3.77708469 -0.11919794 0 0 Z " fill="#675445" transform="translate(487,679)"/>
<path d="M0 0 C0.33 0 0.66 0 1 0 C1.33 4.95 1.66 9.9 2 15 C1.01 14.67 0.02 14.34 -1 14 C-1.22331199 12.41870971 -1.42804644 10.83478911 -1.625 9.25 C-1.74101562 8.36828125 -1.85703125 7.4865625 -1.9765625 6.578125 C-2.00207817 3.77140122 -1.44843844 2.36615134 0 0 Z " fill="#514639" transform="translate(223,635)"/>
<path d="M0 0 C0.66 0 1.32 0 2 0 C2 0.66 2 1.32 2 2 C2.66 2 3.32 2 4 2 C4.22417836 4.7648665 4.32233508 6.46277487 2.875 8.875 C0.07848948 10.55290631 -1.93690532 9.74875648 -5 9 C-4.67 8.34 -4.34 7.68 -4 7 C-2.68 7 -1.36 7 0 7 C0.33 5.35 0.66 3.7 1 2 C0.34 1.67 -0.32 1.34 -1 1 C-0.67 0.67 -0.34 0.34 0 0 Z " fill="#0A0915" transform="translate(399,78)"/>
<path d="M0 0 C-0.33 0.99 -0.66 1.98 -1 3 C-1.66 3 -2.32 3 -3 3 C-3 3.66 -3 4.32 -3 5 C-7.43076923 7.09230769 -7.43076923 7.09230769 -10.3125 6.625 C-10.869375 6.41875 -11.42625 6.2125 -12 6 C-11.01 5.67 -10.02 5.34 -9 5 C-9.33 4.34 -9.66 3.68 -10 3 C-8.70990357 2.49596232 -7.41786211 1.99690074 -6.125 1.5 C-5.04605469 1.08234375 -5.04605469 1.08234375 -3.9453125 0.65625 C-2 0 -2 0 0 0 Z " fill="#473230" transform="translate(495,675)"/>
<path d="M0 0 C4.83628305 0.99043705 9.47618873 1.95698846 14 4 C14 4.66 14 5.32 14 6 C9.16371695 5.00956295 4.52381127 4.04301154 0 2 C0 1.34 0 0.68 0 0 Z " fill="#1E1915" transform="translate(478,57)"/>
<path d="M0 0 C0.99 0 1.98 0 3 0 C3 3.3 3 6.6 3 10 C2.01 10 1.02 10 0 10 C0 6.7 0 3.4 0 0 Z " fill="#C9C7CA" transform="translate(440,76)"/>
<path d="M0 0 C0.33 0 0.66 0 1 0 C1.36517527 6.57315478 0.13619737 11.79485526 -2 18 C-2.33 18 -2.66 18 -3 18 C-3.33 15.69 -3.66 13.38 -4 11 C-3.01 10.67 -2.02 10.34 -1 10 C-0.67 6.7 -0.34 3.4 0 0 Z " fill="#2F1512" transform="translate(518,637)"/>
<path d="M0 0 C1.48717691 3.86665996 0.34016247 6.20287302 -1 10 C-1.37531446 12.32694964 -1.71917202 14.65976685 -2 17 C-4 14 -4 14 -3.57421875 10.8984375 C-3.28160156 9.73570313 -2.98898438 8.57296875 -2.6875 7.375 C-2.40261719 6.20710938 -2.11773437 5.03921875 -1.82421875 3.8359375 C-1 1 -1 1 0 0 Z " fill="#8C796D" transform="translate(226,82)"/>
<path d="M0 0 C6.625 -0.25 6.625 -0.25 10 2 C9.67 2.66 9.34 3.32 9 4 C8.34 3.67 7.68 3.34 7 3 C3.62177584 2.85624578 1.22609045 2.92463652 -2 4 C-1.34 2.68 -0.68 1.36 0 0 Z " fill="#CBC9CC" transform="translate(450,76)"/>
<path d="M0 0 C-0.99 1.485 -0.99 1.485 -2 3 C-3.9453125 3.29296875 -3.9453125 3.29296875 -6.125 3.1875 C-7.40375 3.125625 -8.6825 3.06375 -10 3 C-10 2.01 -10 1.02 -10 0 C-6.42355152 -1.2380014 -3.66305234 -0.74926071 0 0 Z " fill="#796860" transform="translate(268,54)"/>
<path d="M0 0 C0.99 0.33 1.98 0.66 3 1 C2.34 1 1.68 1 1 1 C1 2.65 1 4.3 1 6 C-0.65 6 -2.3 6 -4 6 C-4 4.68 -4 3.36 -4 2 C-2.68 2 -1.36 2 0 2 C0 1.34 0 0.68 0 0 Z " fill="#A5A3A6" transform="translate(431,80)"/>
<path d="M0 0 C0.66 0 1.32 0 2 0 C2 3.3 2 6.6 2 10 C1.34 10 0.68 10 0 10 C-1.50943396 3.01886792 -1.50943396 3.01886792 0 0 Z " fill="#D2D0D3" transform="translate(280,76)"/>
<path d="M0 0 C0.66 0 1.32 0 2 0 C1.34 1.98 0.68 3.96 0 6 C-1.98 6 -3.96 6 -6 6 C-4 4 -2 2 0 0 Z " fill="#574744" transform="translate(502,669)"/>
<path d="M0 0 C0.66 0 1.32 0 2 0 C2.66 0.66 3.32 1.32 4 2 C3.625 5.125 3.625 5.125 3 8 C2.01 8 1.02 8 0 8 C0 5.36 0 2.72 0 0 Z " fill="#5A4F49" transform="translate(516,96)"/>
<path d="M0 0 C2.64 0 5.28 0 8 0 C8 0.66 8 1.32 8 2 C9.65 2 11.3 2 13 2 C13 2.33 13 2.66 13 3 C4.80743982 3.4726477 4.80743982 3.4726477 1.4375 1.5 C0.963125 1.005 0.48875 0.51 0 0 Z " fill="#D1D1D1" transform="translate(434,710)"/>
<path d="M0 0 C1.58467728 0.28427417 3.1677057 0.57774818 4.75 0.875 C6.07257813 1.11863281 6.07257813 1.11863281 7.421875 1.3671875 C9.86947744 1.96796264 11.80599857 2.77997117 14 4 C8.32723489 4.29341888 5.00932754 4.00559652 0 1 C0 0.67 0 0.34 0 0 Z " fill="#241E1D" transform="translate(256,677)"/>
<path d="M0 0 C0 0.66 0 1.32 0 2 C-2.95664519 3.4783226 -5.74229737 3.06032783 -9 3 C-9 2.34 -9 1.68 -9 1 C-5.92677456 0.08941469 -3.19902639 -0.08886184 0 0 Z " fill="#211C18" transform="translate(271,56)"/>
<path d="M0 0 C3.45925163 1.2491742 6.14693203 2.67527795 9 5 C8.01 5.33 7.02 5.66 6 6 C2.8125 4.1875 2.8125 4.1875 0 2 C0 1.34 0 0.68 0 0 Z " fill="#51463C" transform="translate(238,671)"/>
<path d="M0 0 C2.78637633 4.1795645 1.79562512 6.14668677 1 11 C0.34 11 -0.32 11 -1 11 C-0.67 7.37 -0.34 3.74 0 0 Z " fill="#583E36" transform="translate(516,636)"/>
<path d="M0 0 C0.66 0.33 1.32 0.66 2 1 C1.67 4.3 1.34 7.6 1 11 C-1.26609984 6.46780033 -0.92735976 4.82227075 0 0 Z " fill="#1E211C" transform="translate(225,89)"/>
<path d="M0 0 C2.97 0.99 5.94 1.98 9 3 C8.67 3.99 8.34 4.98 8 6 C4.08597051 4.73058503 2.20927127 3.48832306 0 0 Z " fill="#6E6056" transform="translate(497,63)"/>
<path d="M0 0 C0.99 0 1.98 0 3 0 C3 1.98 3 3.96 3 6 C2.01 6 1.02 6 0 6 C0 4.02 0 2.04 0 0 Z " fill="#0A090B" transform="translate(479,78)"/>
<path d="M0 0 C2.72426311 2.35277269 3.8141763 4.62496331 5 8 C3.0625 7.375 3.0625 7.375 1 6 C0.25 2.875 0.25 2.875 0 0 Z " fill="#1B1713" transform="translate(229,655)"/>
<path d="M0 0 C0.33 0 0.66 0 1 0 C1 2.64 1 5.28 1 8 C1.66 8 2.32 8 3 8 C3 8.99 3 9.98 3 11 C2.01 11 1.02 11 0 11 C0 7.37 0 3.74 0 0 Z " fill="#97958E" transform="translate(217,306)"/>
<path d="M0 0 C2 2 2 2 2.1953125 3.9453125 C2.13020833 5.96354167 2.06510417 7.98177083 2 10 C1.34 10 0.68 10 0 10 C-1.231394 6.30581799 -0.64432764 3.7943739 0 0 Z " fill="#2B292C" transform="translate(277,77)"/>
<path d="M0 0 C0.99 0 1.98 0 3 0 C3 1.65 3 3.3 3 5 C2.01 5.33 1.02 5.66 0 6 C0 4.02 0 2.04 0 0 Z " fill="#141536" transform="translate(397,80)"/>
<path d="M0 0 C0.99 0.33 1.98 0.66 3 1 C2.67 2.32 2.34 3.64 2 5 C1.34 5 0.68 5 0 5 C0 4.34 0 3.68 0 3 C-1.32 3 -2.64 3 -4 3 C-4 2.34 -4 1.68 -4 1 C-2.68 1.33 -1.36 1.66 0 2 C0 1.34 0 0.68 0 0 Z " fill="#D9D7DA" transform="translate(274,81)"/>
<path d="M0 0 C0.33 0.66 0.66 1.32 1 2 C-1 5 -1 5 -4 7 C-3.67 5.02 -3.34 3.04 -3 1 C-2.01 0.67 -1.02 0.34 0 0 Z " fill="#544133" transform="translate(228,78)"/>
<path d="M0 0 C0.99 0 1.98 0 3 0 C3.33 0.99 3.66 1.98 4 3 C3.67 3.66 3.34 4.32 3 5 C2.01 5 1.02 5 0 5 C-0.5625 3.0625 -0.5625 3.0625 -1 1 C-0.67 0.67 -0.34 0.34 0 0 Z " fill="#929093" transform="translate(261,76)"/>
</svg>
